<?xml version="1.0" encoding="UTF-8" standalone="no"?>
<!-- Created with Inkscape (http://www.inkscape.org/) -->

<svg
   xmlns:dc="http://purl.org/dc/elements/1.1/"
   xmlns:cc="http://creativecommons.org/ns#"
   xmlns:rdf="http://www.w3.org/1999/02/22-rdf-syntax-ns#"
   xmlns:svg="http://www.w3.org/2000/svg"
   xmlns="http://www.w3.org/2000/svg"
   xmlns:sodipodi="http://sodipodi.sourceforge.net/DTD/sodipodi-0.dtd"
   xmlns:inkscape="http://www.inkscape.org/namespaces/inkscape"
   id="svg5709"
   version="1.1"
   inkscape:version="0.48.1 "
   width="187.5"
   height="271.25"
   xml:space="preserve"
   sodipodi:docname="Flamingo_23.pdf"><metadata
     id="metadata5715"><rdf:RDF><cc:Work
         rdf:about=""><dc:format>image/svg+xml</dc:format><dc:type
           rdf:resource="http://purl.org/dc/dcmitype/StillImage" /><dc:title></dc:title></cc:Work></rdf:RDF></metadata><defs
     id="defs5713" /><sodipodi:namedview
     pagecolor="#ffffff"
     bordercolor="#666666"
     borderopacity="1"
     objecttolerance="10"
     gridtolerance="10"
     guidetolerance="10"
     inkscape:pageopacity="0"
     inkscape:pageshadow="2"
     inkscape:window-width="640"
     inkscape:window-height="480"
     id="namedview5711"
     showgrid="false"
     inkscape:zoom="1.0728111"
     inkscape:cx="93.75"
     inkscape:cy="135.625"
     inkscape:window-x="631"
     inkscape:window-y="152"
     inkscape:window-maximized="0"
     inkscape:current-layer="g5717" /><g
     id="g5717"
     inkscape:groupmode="layer"
     inkscape:label="Flamingo_23"
     transform="matrix(1.25,0,0,-1.25,0,271.25)"><g
       id="g5719"
       transform="scale(0.24,0.24)"><path
         d="m 534.25,894.25 c 8.297,-4.723 15.215,-12.121 25,-13 5.727,-2.223 10.258,-6.281 16,-9 11.918,-7.305 28.621,-11.363 36,-24 11.469,-16.715 18.391,-37.719 11,-58 -2.156,-7.641 -3.109,-15.754 -7,-22 -1.836,-2.348 -3.27,0.754 -5,0 -3.277,2.426 -3.754,8.152 -6,11 -7.301,7.176 -9.449,17.199 -15,26 -8.047,11.727 -17.832,23.898 -30,33 -0.957,-3.852 0.953,-8.387 -3,-10 -5.113,1.613 -19.191,2.328 -19,0 -12.121,1.613 -23.098,-2.445 -34,-5 -3.176,-0.07 -6.52,-1.5 -10,-4 -2.961,-4.66 -5.109,-8.957 -5,-15 l -2,0 c -0.496,2.941 -0.016,5.805 1,9 -0.301,-0.332 -2.926,-1.285 -3,0 4.609,6.828 13.676,10.887 21,14 l 2,0 -1,0 24,4 c 3.469,0.523 6.809,0.523 10,1 5.875,-0.715 9.691,3.34 15,2 1.375,0.863 1.613,3.012 1,4 -7.738,0.441 -15.375,6.172 -18,13 -2.863,5.102 -4.055,12.5 -9,16 -2.453,-3.977 -7.703,-3.258 -12,-3 -1.906,0.457 -3.574,2.844 -5,5 -0.961,3.809 2.379,6.195 5,8 2.152,2.254 6.207,2.492 10,2 l 2,-3 c 2.559,4.207 7.809,3.016 12,5 l 9,-1 c -11.043,6.891 -21.305,16.676 -35,18 -2.531,1.539 -5.395,0.344 -7,1 -1.496,-2.801 -3.883,1.492 -6,0 -11.484,0.063 -22.937,-3.758 -31,-12 l -5,-4 c 3.52,-1.121 0.656,-3.508 -1,-5 -2.879,-3.758 -5.742,-6.621 -8,-11 l 4,3 1,-1 c -5.605,-6.93 -8.945,-14.805 -11,-23 1.578,0.559 1.34,4.613 4,3 -3.617,-8.172 -5.523,-17.238 -8,-26 l 1,-2 c -0.91,-0.219 -2.105,-0.219 -3,1 -0.773,5.703 5.668,12.148 1,16 1.328,7.125 4.43,13.332 6,20 -3.004,5.023 2.484,10.512 5,15 -2.992,0.527 -0.605,3.152 0,4 8.699,10.844 21.348,21.105 35,24 7.586,0.688 15.695,5.223 23,1 6.059,-3.176 13.219,-5.086 19,-8"
         style="fill:#ff0080;fill-opacity:1;fill-rule:nonzero;stroke:none"
         id="path5721" /><path
         d="m 562.25,876.25 c 13.223,-10.59 31.121,-13.453 44,-25 l 5,-8 c -5.949,-3.602 -14.301,-1.453 -20,-6 -5.039,5.023 -11.719,8.84 -18,13 -2.785,-2.488 -6,3 -6,3 -2.035,-1.43 -5.137,3.82 -7,1 -4.344,-2.191 -7.684,1.625 -12,2 -0.934,-0.613 -1.41,-1.566 -1,-3 2.934,-0.953 5.316,-4.293 9,-4 0.852,-0.293 1.805,-0.773 3,-1 0.715,2.137 1.43,5 4,3 3.395,-1.102 5.543,-6.113 10,-4 5.09,-4.977 11.77,-6.41 16,-13 0.543,-6.297 -3.039,-11.309 -5,-17 -7.82,8.078 -13.547,15.953 -22,22 -4.91,2.547 -9.684,4.215 -14,5 -7.852,7.094 -9.523,18.785 -17,27 -0.875,3.004 1.75,4.434 4,5 4.672,1.82 9.922,1.105 14,1 l 13,-1"
         style="fill:#ff409f;fill-opacity:1;fill-rule:nonzero;stroke:none"
         id="path5723" /><path
         d="m 520.25,871.25 c -0.609,1.332 0.344,2.766 2,4 l 1,0 -3,-4"
         style="fill:#ff409f;fill-opacity:1;fill-rule:nonzero;stroke:none"
         id="path5725" /><path
         d="m 462.25,832.25 c -1.547,-6.684 -3.695,-14.32 -4,-21 l 2,5 c -0.98,-7.148 -0.742,-16.457 3,-22 l 2,4 c 0.941,-2.754 0.223,-5.617 -2,-7 4.609,-4.824 10.336,-11.027 15,-16 0.586,1.633 -1.324,4.734 2,5 -2.844,4.508 -5.469,7.848 -7,13 l 1,0 c 6.734,-9.211 10.789,-18.754 17,-27 4.051,-0.824 4.051,-6.074 6,-9 l 7,-7 c 1.313,1.094 0.117,3.004 0,5 -6.086,8.266 -15.152,15.188 -18,26 4.039,-1.027 2.848,-5.801 6,-8 10.207,-10.211 15.695,-22.383 25,-34 1.434,0.879 -1.43,2.789 0,5 0.242,0.414 1.91,0.176 2,-1 1.344,1.414 -2.473,4.516 -1,7 3.297,-4.156 5.207,-10.121 7,-15 l 3,0 c 1.172,-3.473 1.648,-6.34 4,-9 -0.68,3.855 -1.875,7.672 -3,12 5.184,-5.043 3.512,-14.113 9,-19 l 2,-3 c 1.582,1.922 -0.805,5.98 0,7 4.445,-5.793 2.297,-16.297 8,-21 -0.934,5.422 -0.215,9.957 0,14 2.41,-7.387 1.691,-15.977 5,-24 0.512,0.625 0.512,0.863 1,1 -0.25,-4.195 1.18,-9.684 1,-14 1.375,3.125 1.375,9.328 0,14 1.375,3.441 1.137,8.215 1,12 l 1,0 c 2,-12.852 1.523,-26.457 0,-39 l -1,0 c -0.344,-6.309 -4.16,-13.707 -4,-21 4.137,4.668 5.566,11.586 7,18 -1.195,6.953 0.238,13.156 1,20 l 1,0 c -0.094,-8.273 -0.809,-17.105 0,-25 1.816,0.02 0.145,2.406 2,2 l 0,-1 c 0.055,5.941 -0.66,16.203 1,23 l 0,1 c 2.395,-5.887 0.008,-15.434 2,-22 2.305,3.941 0.156,12.055 2,17 l 1,-4 c 0.734,-9.059 -0.934,-19.32 1,-29 l -1,-6 c -1.648,3.984 0.496,10.668 -4,13 l -1,4 c -3.809,-9.437 -5.477,-19.699 -8,-30 -0.82,-0.676 -2.012,-0.676 -2,0 0.465,6.008 3.566,12.449 2,19 -0.582,-0.344 -2.012,-1.062 -1,-2 l -8,-17 c -3.988,1.711 -5.18,-4.258 -8,-7 -2.191,-3.937 -4.816,-8.711 -8,-13 2.227,7.391 7.957,13.836 11,21 -2.328,-0.723 -4,-4.062 -7,-5 -11.078,-7.656 -21.816,-14.336 -34,-19 -2.133,-0.586 -2.133,1.32 -2,2 l -13,-4 c -1.687,1.652 0.699,3.32 2,4 -0.109,0.992 0.609,0.992 1,1 l 0,-2 c 10.824,2.945 22.277,8.676 33,15 l 1,-1 c -5.281,-5.324 -13.871,-8.187 -21,-12 12.141,4.289 23.355,10.73 34,19 -8.977,-2.062 -17.805,-5.645 -27,-7 -3.93,-3.176 -8.699,-1.508 -13,-2 -5.004,-1.176 -6.676,8.609 -11,2 -8.324,1.836 -18.582,5.176 -23,14 7.996,-6.199 15.871,-13.836 26,-11 0.371,3.371 -3.926,4.324 -5,8 -2.742,3.723 -3.699,9.449 -5,14 -8.48,1.895 -14.684,7.145 -22,11 2.543,-9.105 13.043,-11.73 19,-18 1.676,-0.891 5.258,-2.801 5,-6 -7.379,0.813 -16.922,2.246 -20,10 3.555,0.359 4.031,-3.699 7,-4 3.234,-1.367 6.574,-3.992 10,-4 -6.766,8.598 -18.695,13.133 -23,23 2.395,3.02 6.453,-1.277 10,-3 4.324,-1.855 8.145,-5.676 13,-7 2.539,12.781 -10.344,17.793 -13,29 l 2,1 c -7.934,12.852 -15.332,26.453 -22,40 -4.785,3.637 -9.078,5.785 -13,9 3.441,-6.078 8.93,-13.715 15,-20 0.375,-1.113 1.09,-3.023 0,-4 l -1,-1 c -8.41,13.434 -19.625,25.129 -27,39 l 4,-3 c 0.988,0.82 -2.352,2.492 0,3 2.898,-2.895 3.613,-6.715 7,-10 l 12,-8 c -1.785,6.273 -6.559,12.242 -9,18 l 1,1 c -5.238,7.559 -12.16,15.199 -21,20 -15.258,7.609 -29.336,17.871 -48,18 -1.617,1.539 -4.004,0.824 -5,3 -9.266,5.461 -19.523,4.746 -31,6 l 0,1 c -15.012,0.609 -34.102,1.801 -50,1 -0.328,1.043 -1.043,2.234 1,3 10.844,-1.004 24.207,-2.914 35,-1 l 9,-1 c -14.066,3.383 -32.441,3.383 -49,5 -9.449,-0.184 -19.949,-1.617 -29,-4 -1.687,-2.629 -7.414,-0.957 -10,-3 l -9,-3 0,-2 c -7.98,0.598 -14.422,-5.367 -22,-7 l -1,-1 c -12.66,-4.766 -24.113,-11.449 -36,-17 -4.098,-5.187 -11.02,-8.293 -17,-12 -4.996,-2.973 -11.676,-5.836 -15,-9 9.527,2.445 19.789,7.695 30,12 l -1,2 c 7.254,2.051 12.023,4.438 19,8 l -1,1 c 12.398,4.984 25.043,10.473 39,13 -11.809,-3.961 -25.648,-8.258 -35,-13 l 0,-1 24,9 c -2.238,-2.539 -5.82,-2.539 -9,-4 -9.227,-4.27 -19.727,-7.371 -29,-12 l 0,-1 c -2.418,0.855 -2.18,-2.484 -5,-3 l -4,-1 c 3.004,-2.781 -1.77,-3.258 -3,-5 l -1,0 c -11.609,-5.895 -25.687,-10.906 -36,-19 5.539,1.648 11.027,4.273 17,8 -1.437,-4.918 -6.687,-3.727 -9,-7 -6.516,-3.168 -14.391,-7.227 -20,-11 1.555,1.625 4.18,-0.52 5,3 l 2,-1 0,-2 c -7.832,-4.102 -15.945,-8.398 -23,-13 1.3281,0.07 2.7578,-0.648 3,-2 14.555,8.988 28.633,16.863 44,24 -15.848,-10.477 -35.891,-18.113 -51,-32 0.5547,-0.91 1.0313,-1.387 1,-3 7.4297,4.715 15.305,9.488 23,14 0.656,-1.648 -1.969,-1.172 -3,-2 -11.379,-8.957 -23.0703,-14.922 -34,-24 -1.7148,-2.375 -2.6719,-4.285 -5,-6 -4.8281,1.953 -4.5898,-6.641 -8,-3 -7.0898,-8.652 -15.6797,-15.332 -19,-25 13.8203,14.918 31.4766,30.43 50,43 l 1,-1 c -10.6953,-9.898 -24.7734,-17.535 -31,-31 l 1,0 c -3.3633,-1.812 -5.75,-5.629 -8,-9 7.5,4.801 14.1836,12.918 21,20 -1.5664,1.031 -1.3281,-2.07 -3,-2 5.0117,5.656 10.7383,10.668 16,16 1.6563,-0.797 1.418,0.633 2,2 2.5195,0.305 3.9531,2.453 7,2 l -43,-41 c -7.0547,-6.277 -11.1094,-14.629 -18,-22 -3.1328,-6.234 -7.668,-11.723 -12,-17 1.7109,-0.691 3.1406,1.219 5,2 -1.1445,-3.645 -7.1094,-4.836 -5,-9 5.0508,6.309 11.2539,15.141 18,21 -6.0312,-8.723 -14.1445,-18.031 -19,-27 2.2305,0.617 4.6172,5.152 7,5 0.0039,-5.578 -5.9609,-8.68 -8,-14 2.2773,1.742 4.6641,1.5 7,2 -3.2891,-5.27 -4.9609,-12.668 -10,-16 0.9844,-3.352 -2.1211,-1.441 -2,-4 l 2,1 c -1.8789,-4.648 -5.9375,-7.988 -6,-12 5.0742,2.816 7.4609,10.453 14,13 l 0,-1 c -7.9727,-5.363 -12.9844,-16.82 -18,-24 2.1523,0.262 4.0625,3.602 6,6 l 1,-1 c -5.8008,-7.605 -13.4375,-12.617 -16,-22 2.5625,0.555 6.1445,3.418 8,6 -1.8555,0.996 -0.9023,3.383 0,4 3.6328,3.68 4.8242,9.406 9,11 8.4688,7.238 10.1406,18.695 18,26 l 0,0 c 1.4453,-3.488 -2.6094,-4.203 -3,-7 -1.2812,-2.215 -1.5195,-7.227 -4,-7 -2.7695,-9.059 -13.2656,-15.023 -15,-24 l 9,5 9,13 c -0.5195,1.477 -1.7109,0.523 -2,0 0.2891,1 2.6758,2.43 3,1 0.1523,-2.148 -0.5625,-4.059 -2,-6 5.2539,1.941 7.6406,10.059 13,11 5.1406,8.602 8.7188,18.863 14,28 0.9219,-0.066 1.6367,-0.543 2,-1 -5.8516,-11.715 -11.1016,-22.453 -14,-34 5.7617,6.773 10.0586,15.84 16,23 l -1,1 c 1.9766,7.594 5.3203,14.992 7,22 l 0,1 0,-1 c 2.6133,4.922 2.8516,11.844 8,16 0.3398,-0.336 0.8164,-0.574 1,-1 -5.9102,-10.078 -8.2969,-22.008 -13,-32 l 2,0 c 7.7148,17.867 13.4414,36.004 20,54 l 1,1 0,-2 c -5.8867,-18.906 -12.0898,-36.086 -20,-54 -4.0234,-6.668 -8.3164,-12.637 -12,-19 3.9219,-2.465 5.3555,3.5 8,6 5.7031,8.477 10,18.98 16,28 -2.6602,0.285 -0.75,3.152 -1,6 l 8,24 c 1.0781,0.836 1.5547,2.266 3,1 -2.6367,-7.562 -5.5,-15.437 -8,-24 3.2148,4.504 5.125,11.188 7,17 l 1,-1 c -2.875,-6.723 -4.7852,-15.555 -8,-22 l 1,-1 c 3.168,5.297 5.793,11.504 8,18 l -1,2 9,32 c 0.055,0.551 1.008,0.551 2,0 -1.945,-8.516 -6.7187,-15.914 -6,-25 2.383,2.164 2.621,7.891 6,9 3.305,2.949 1.871,8.199 4,12 -2.129,0.973 -0.695,-3.086 -3,-1 -1.273,3.883 2.543,7.461 3,12 2.168,5.961 4.078,12.406 7,18 l 2,-1 -6,-17 c 5.133,3.336 7.758,10.02 10,16 -2.242,4.52 1.813,9.055 3,14 2.633,4.84 4.777,10.566 8,15 4.414,-1.09 6.086,4.875 9,8 0.426,0.453 0.902,1.172 2,1 -2.527,-4.363 -6.824,-8.66 -8,-14 9.527,9.875 16.449,20.137 27,29 0.902,0.207 1.141,-0.031 1,-1 -2.246,-4.762 -8.211,-7.625 -12,-13 -7.187,-8.703 -17.926,-16.344 -22,-27 0.496,-1.512 1.211,0.395 2,0 0.883,3.738 3.984,4.691 6,7 3.711,5.566 8.961,11.297 15,16 -5.086,-8.047 -13.437,-14.969 -18,-23 -0.687,0.156 -0.687,-0.32 -1,-1 1.266,-0.273 2.938,0.918 4,-1 -0.109,-1.898 -3.211,0.25 -4,-2 -7.562,-7.297 -15.437,-17.082 -17,-29 l 1,0 c 4.621,10.484 11.063,19.793 19,27 l 0,-1 c 1.371,-0.242 -0.777,-1.434 -1,-2 -2.402,-0.387 -2.879,-3.492 -5,-5 l 1,-3 c -7.949,-12.437 -17.969,-22.699 -24,-36 3.168,0.414 4.359,3.754 7,4 4.281,12.645 13.348,22.906 21,33 3.324,6.371 4.277,14.727 11,19 1.152,0.258 1.867,-0.219 2,-1 0.586,-5.66 -3.711,-0.648 -5,-5 l 1,-1 c -4.246,-5.148 -6.867,-11.832 -8,-18 1.609,-1.469 0.891,2.348 3,1 -0.676,-1.516 -0.914,-4.379 -3,-5 -2.926,-0.57 -2.449,2.531 -3,4 -2.789,-4.57 -6.129,-8.629 -9,-13 l 0,2 c -2.141,-2.402 -2.379,-5.98 -5,-9 l 4,3 c -4.719,-9.289 -11.402,-17.883 -13,-28 l 3,1 c -0.445,-1.859 -1.402,-3.293 -3,-4 -1.027,-1.199 -3.41,0.707 -3,-2 l 0,-1 c 0.781,1.082 2.453,0.129 3,-1 l 0,-2 c 5.18,5.516 8.043,12.676 13,19 0.77,0.117 2.199,0.117 2,0 -6.242,-8.711 -10.301,-18.496 -18,-26 -0.172,-1.566 0.066,-2.52 0,-4 0.781,-1.621 1.973,-1.859 3,-3 -0.547,-1.008 -2.457,-1.246 -3,-1 -2.559,1.66 -3.273,3.809 -4,5 -5.2422,-1.191 -11.4453,-4.055 -12,-10 l 11,7 c 1.246,-0.34 1.008,-1.531 1,-2 -5.7187,-5.258 -15.0234,-6.453 -17,-14 l -1,0 -1,4 -3,-6 c -0.1836,-1.191 2.4414,0 1,-2 -0.2266,-0.863 -1.6602,-0.387 -2,-2 l 1,0 c 6.7383,4.957 16.043,10.445 23,17 0.68,-0.59 1.156,-1.305 2,-2 -7.0469,-5.988 -15.6367,-9.566 -23,-16 l 1,-2 c -1.0352,-0.398 -3.6602,-0.875 -5,1 -8.6797,-8.078 -15.125,-15.477 -24,-24 0.0469,-0.309 1.0039,-1.5 2,-1 6.3984,6.418 10.9336,12.863 18,17 l 1,-1 c 7.4414,4.977 15.3164,10.707 24,15 l 0,-2 c -14.1719,-6.828 -25.1484,-16.852 -37,-25 -4.8516,-5.695 -9.1445,-11.422 -13,-18 6.957,4.906 13.6367,11.828 20,18 l 0,0 c -2.7812,-4.5 -6.8398,-8.32 -10,-12 l 2,0 c 1.1602,-1.094 0.207,-2.285 0,-3 -3.6133,0.238 -2.1797,-4.059 -5,-4 l -3,-4 c 13.9336,9.906 26.8164,24.703 40,38 l -2,1 c 3.6133,4.082 8.859,7.422 13,11 2.543,-0.715 2.781,2.863 4,1 4.031,2.582 8.324,7.832 13,5 l 1,0 c -9.969,-1.703 -16.652,-9.578 -25,-15 3.34,-1.738 6.441,2.559 9,4 -5.898,-4.547 -14.25,-11.227 -20,-18 8.1328,2.477 16.727,8.441 25,13 0.555,-0.023 1.27,-0.977 1,-1 -3.309,-6.898 -10.707,-9.523 -15,-15 -1.6719,-0.25 -1.1953,-3.113 -2,-3 1.9961,-0.355 4.383,3.465 7,0 5.496,3.941 12.418,6.328 17,12 1.621,-1.137 4.723,2.922 5,0 -7.914,-7.582 -19.129,-10.684 -26,-19 14.031,6.168 26.914,17.148 41,26 l 2,0 c -2.961,-2.172 -6.062,-3.84 -9,-7 -11.855,-8.535 -23.547,-15.457 -35,-22 9.066,1.293 17.18,6.781 24,12 l 2,0 c 0.723,-1.16 -1.187,-2.113 -1,-3 3.871,-0.547 8.164,1.602 12,4 2.371,1.18 3.563,3.328 5,5 l 0,1 c 2.141,0.91 1.902,4.488 5,6 l 12,8 c -1.496,0.512 -1.734,2.66 0,3 5.422,3.238 9.719,8.73 16,12 2.309,0.309 5.172,2.934 7,1 l 1,-1 c 1.707,2.695 1.945,6.035 -2,7 -4.168,0.707 -8.941,-0.484 -11,3 3.016,1.285 6.594,-0.621 10,0 l 0,4 2,0 c 0.082,-1.52 -1.828,-4.145 1,-5 0.75,0.855 0.273,2.527 2,2 4.715,-4.727 10.922,-4.008 18,-5 -0.637,1.945 -4.691,4.094 -4,7 3.363,1.629 2.41,-3.145 5,-4 l 6,-3 c -0.957,2.66 2.145,1.707 4,2 1.25,-1.008 1.25,-2.203 0,-3 l -1,0 c 2.488,-1.59 3.918,0.082 5,-3 l 0,-1 c 2.258,-1.168 5.359,1.934 8,1 -5.266,-4.078 -12.898,-4.078 -20,-5 0.898,-0.75 1.137,-1.227 1,-2 -6.785,-0.898 -12.75,-0.418 -19,2 -6.156,-2.656 -12.84,-7.91 -18,-12 -2.953,-2.352 -8.68,-2.113 -10,-6 -4.406,-4.227 -10.848,-6.852 -14,-11 7.207,-1.102 14.844,2.477 22,5 -2.383,1.059 -5.008,2.25 -7,4 1.754,3.5 7.242,2.785 11,6 -0.895,-1.785 -3.52,-2.977 -5,-5 4.344,-0.363 9.832,-1.316 14,3 2.512,0.934 4.422,-3.125 7,-4 5.297,-0.797 10.066,-2.227 15,-1 0.793,-2.66 1.273,-3.375 4,-3 2.043,1.535 4.43,0.34 7,1 -1.613,3.875 -8.535,1.488 -13,3 -4.84,0.398 -11.523,1.113 -16,3 2.094,1.695 5.672,0.977 9,1 6.93,-2.887 16.238,-0.5 23,-5 -0.559,-0.512 -0.559,-0.988 -1,-1 1.633,-0.941 4.977,0.488 7,2 l 2,2 c -7.605,0.309 -13.57,2.695 -21,2 -0.207,-0.023 0.035,-1.453 -1,-1 -1.113,1.215 -1.352,2.648 0,3 3.66,2.988 7.715,-0.113 12,-1 0.25,2.32 -4.047,2.32 -4,5 1.863,-1.488 5.918,-4.113 10,-3 7.848,0.082 15.246,1.035 22,2 l 2,2 c 1.508,-0.34 2.461,-3.441 0,-4 -1.355,-0.875 -3.266,-2.066 -3,-4 l 12,0 c -10.117,-2.363 -22.527,-2.602 -33,-6 -0.266,-1.613 -0.742,-1.852 -2,-3 15.098,1.387 30.371,7.113 45,7 l 1,1 c 13.719,3.172 29.23,6.273 42,13 1.07,1.148 2.738,0.672 5,2 7.285,2.73 16.113,5.355 22,12 1.27,0.754 5.328,1.469 4,4 2.043,1.766 5.383,2.242 8,4 1.203,0.391 2.395,-0.805 3,-2 -4.66,-5.246 -13.254,-5.246 -16,-12 l 2,-1 c 4.805,1.785 10.77,3.934 16,7 0.973,0.754 0.258,2.898 2,2 1.121,-0.531 0.406,-2.441 -1,-3 -3.129,-2.305 -6.707,-3.258 -9,-6 10.168,-1.793 18.758,5.844 28,6 1.496,-0.871 -0.652,-3.02 -1,-3 9.176,1.887 19.195,1.41 28,6 l 0,-2 c -5.223,-2.113 -8.805,-4.5 -14,-8 8.777,0.398 18.32,3.023 26,6 1.867,0.367 2.582,-1.066 3,-2 4.355,-3.363 9.84,-2.883 14,0 1.57,0.219 2.047,-0.738 3,-2 -0.715,-1.602 -2.387,-2.555 -4,-3 l 2,-2 c 7.727,-2.328 17.031,-1.852 25,-4 l 0,0 c -3.434,-1.91 -7.25,0.238 -11,-1 3.27,-3.293 8.758,-2.578 13,-3 5.305,-0.293 11.031,0.898 16,0 -2.344,-3.398 -7.117,-2.68 -10,-5 13.145,-3.172 26.504,0.887 39,3 l 0,-1 -8,-5 1,-1 c 12.879,1.309 25.766,2.262 36,10 l 2,0 c -0.781,-3.918 -5.555,-4.398 -7,-7 7.648,1.172 15.047,3.32 22,8 1.16,-0.148 2.113,-1.578 2,-2 6.797,3.762 12.043,8.773 19,13 l 0,-2 15,20 2,0 8,25 2,22 c 2.074,0.699 1.598,-1.687 2,-3 1.27,9.668 -3.027,20.645 -3,32 4.746,0.102 0.688,-6.582 4,-8 0.984,-0.969 -0.687,-3.117 1,-3 l -4,21 c 1.359,18.023 -10.094,33.059 -18,48 l -2,0 c -3.695,6.539 -7.512,13.457 -13,18 l -2,1 c -6.828,9.492 -18.523,12.355 -26,21 l 0,1 2,-1 c 5.715,-4.824 13.113,-7.687 18,-13 l 2,1 17,-19 1,0 c 8.52,-16.066 22.836,-30.625 23,-50 1.746,-10.219 1.27,-21.195 4,-31 -0.348,-0.457 -2.016,-1.414 -2,0 -0.016,0.258 -0.492,0.258 -1,1 l -1,-2 c 0.789,-8.289 4.609,-17.355 0,-25 l 0,0 c -1.594,-9.301 -2.312,-20.281 -7,-27 -0.32,-5.93 -3.664,-9.031 -5,-14 -1.289,-2.43 -2.48,-5.77 -5,-7 l -2,1 c -5.742,-7.406 -12.184,-17.43 -22,-18 l -14,-10 c -1,0.309 -1.238,1.5 -2,2 0.047,1.172 1.477,2.125 0,3 l -3,-3 c -5.066,-0.977 -10.793,-5.035 -16,-3 l 0,3 c -14.359,-4.797 -31.777,-5.988 -49,-7 l 0,2 c 5.293,2.352 11.973,0.922 17,4 -5.027,0.5 -12.426,-1.648 -18,-2 -4.445,-0.363 -8.742,1.309 -13,3 -1.707,1.41 1.395,2.84 3,3 0.066,0.559 0.781,0.082 1,1 -6.184,0.75 -12.625,-0.203 -19,2 -0.785,0.422 -1.023,2.57 -1,4 -5.75,0.957 -13.863,0 -19,5 -5.602,-0.227 -9.895,2.875 -15,4 -10.645,-1.84 -20.187,-5.656 -31,-5 -1.121,0.297 -1.836,1.012 -2,2 3.742,1.637 7.563,1.875 10,5 -12.937,-1.215 -23.437,-6.465 -37,-8 l -1,3 c -5.957,1.637 -12.16,-3.613 -17,0 -2.559,-10.293 -0.41,-24.137 -5,-35 -4.477,-15.148 -20.703,-22.785 -21,-39 -1.852,-2.402 0.059,-3.355 0,-5 -0.898,-7.187 0.773,-14.824 1,-22 0.012,-6.906 0.25,-14.305 1,-22 l 1,-1 c -1.75,-10.395 -1.512,-22.328 1,-31 -0.125,-16.863 0.828,-32.137 1,-48 2.215,-11.582 2.934,-22.801 7,-33 2.852,-12.949 -4.785,-23.449 -5,-36 1.648,-44.25 7.613,-83.391 11,-125 1.863,-7.078 1.387,-14.711 2,-21 -1.09,-19.488 6.305,-39.773 7,-59 0.977,-7.7422 2.883,-15.6172 7,-23 2.805,-3.3555 1.133,-9.0859 6,-10 11.836,-1.4727 25.676,-0.7539 37,1 l 1,-2 c -1.348,0.0078 -1.109,-1.4258 -1,-2 0.848,-5.6289 6.574,-5.1523 10,-8 12.797,-3.8359 27.832,-0.0156 42,-2 2.059,-0.1641 4.441,-1.3594 5,-4 -4.137,-14.0625 -21.078,-10.0078 -30,-19 -3.965,-4.3711 -10.883,-9.6211 -9,-17 -0.215,-3.36328 1.934,-7.41797 0,-9 -5.699,3.01172 -10.473,2.29688 -17,5 -3.016,2.7852 -7.789,3.2617 -10,7 -3.516,0.082 -6.617,1.2734 -8,3 -10.309,2.0938 -16.754,11.4023 -27,12 -7.172,2.9805 -16.477,1.7891 -23,6 -4.215,6.5273 4.375,10.8242 5,17 4.625,22.4609 -5.16,42.5078 -3,64 -6.215,41.273 -8.125,84.473 -15,127 -0.281,13.555 -4.578,28.352 -4,42 -5.109,15.707 -9.406,31.695 -11,48 4.457,13.527 5.172,27.848 6,43 l 1,1 0,23 c -0.395,30.535 -3.258,60.129 -7,88 -4.609,2.676 -2.223,7.926 -3,11 -10.437,14.586 -14.02,33.441 -14,51 l 2,5 c -6.312,1.785 -5.598,-7.762 -11,-8 -10.586,-10.5 -24.184,-16.945 -37,-24 -14.148,-22.539 -35.863,-38.527 -57,-55 -8.449,-7.156 -15.609,-15.508 -24,-23 -0.676,-4.918 1.711,-9.691 2,-16 0.664,-7.055 -6.973,-14.93 1,-20 3.242,-13.309 15.891,-19.75 20,-32 6.867,-8.754 11.16,-15.676 18,-24 l 2,0 c 8.578,-14.824 21.703,-30.812 30,-47 l 0,-1 c 4.828,-5.484 7.215,-10.738 12,-16 l 0,-1 c 3.566,-6.387 8.098,-11.875 12,-18 1.824,2.309 3.258,-1.75 4,-3 9.277,-21.422 22.164,-39.559 28,-62 -3.926,0.246 -0.348,-2.617 -1,-5 0.891,-5.016 0.176,-10.746 -1,-17 l -1,0 -8,-17 c -3.187,0.105 -4.621,-2.758 -6,-6 -5.777,-10.84 -12.937,-24.441 -27,-27 -3.355,-1.738 -7.41,-4.602 -11,-2 6.93,2.41 11.941,6.707 17,11 -0.766,0.957 -2.91,0.238 -2,2 3.383,1.82 7.438,4.684 9,9 -5.379,1.172 -11.105,-4.555 -16,0 5.133,3.32 13.246,5.707 17,12 l -1,1 c 3.688,10.844 12.039,18.719 12,31 -1.867,0.371 -2.824,-4.641 -5,-2 l 0,4 c -3.789,-0.676 -6.891,-6.641 -11,-4 -0.664,4.758 4.824,9.051 2,13 -0.277,-1.324 -0.754,-0.605 -1,0 0.484,10.133 1.199,23.496 -6,32 -10.457,31.59 -33.363,55.219 -48,85 -11.609,12.699 -11.848,27.734 -25,40 -7.609,5.633 -13.098,10.883 -19,18 l -3,2 c -4.461,3.293 -7.086,9.977 -12,13 -2.957,7.715 -10.117,13.441 -14,22 -0.41,6.719 -8.5234,15.309 1,20 5.746,8.195 10.758,15.832 20,20 8.176,11.824 20.344,19.461 31,28 5.57,6.02 13.922,10.551 19,17 1.844,0.473 2.32,3.816 5,3 5.434,6.781 12.352,11.555 18,17 2.227,7.918 1.75,16.512 6,23 -7.828,1.148 -17.137,-1.715 -24,3 l 5,0 c -4.816,1.488 -11.738,2.922 -17,1 0.73,-2.137 -0.703,-3.57 -2,-4 -9.68,-2.434 -18.27,-6.969 -29,-7 -7.641,-2.113 -15.039,-8.32 -23,-6 l -11,-6 c 1.066,-0.137 2.258,-1.57 1,-3 -23.7969,-2.867 -43.8398,-16.469 -66,-25 -5.9961,-4.355 -13.8711,-5.312 -19,-12 -0.8359,-0.234 -2.5039,0.008 -2,1 0.6875,4.496 4.5039,7.598 4,12 l -1,0 c 1.2656,4.188 6.5156,7.055 8,12 2.5742,4.359 5.1953,7.703 8,12 l -3,0 1,2 c 5.6406,3.727 13.0352,7.543 17,14 -3.2461,0.703 -2.7695,-3.832 -6,-4 -4.168,-1.262 -5.3594,-7.23 -11,-7 l 0,1 -19,-15 c -1.3672,0.168 -2.5625,0.406 -3,2 0.9141,1.746 3.3008,3.895 4,6 -6.1875,-2.344 -11.4375,-9.742 -18,-11 l -1,1 c 3.74609,4.316 4.46094,9.328 7,14 l -2,-1 -1,2 c 3.5625,9.125 8.8125,17.715 8,28 l 7,19 c -0.4609,0.07 -3.0859,-2.316 -4,0 3.3008,11.047 9.0273,21.551 15,31 -5.2578,2.242 -0.2461,6.063 0,9 3.332,6.129 7.6289,12.098 12,17 -0.793,7.27 5.1719,13.234 9,18 4.7617,6.93 11.9219,11.465 14,20 11.7617,12.465 21.543,29.41 37,38 4.109,2.625 6.734,6.684 12,7 -0.492,1.832 -2.879,1.355 -3,3 8.711,10.285 20.641,14.82 31,22 6.824,7.855 17.559,11.914 26,18 l 2,2 c 19.387,9.813 41.102,16.258 61,26 16.133,5.531 33.789,8.156 51,9 l 1,-3 c 13.762,-1.664 29.512,-0.23 43,-5 l -1,-1 c 10.18,-1.391 21.633,-1.867 32,-4 0.609,-2.164 3.473,-0.73 4,-2 -1.719,-0.641 -2.914,1.031 -5,1 9.961,-8.562 24.992,-4.266 36,-12 12.855,-7.777 28.363,-12.312 38,-25 5.875,-7.121 12.316,-13.328 18,-21 l -1,-2 -8,4 5,-11 c 2.375,-1.465 1.895,-4.805 4,-7 7.203,-12.363 14.359,-26.445 23,-39 -1.004,-1.047 -2.195,-0.809 -3,0 0.563,-5.82 6.293,-8.207 9,-13 1.586,-4.277 3.02,-9.051 3,-14 0.734,-0.301 2.641,-0.539 2,-2 l -2,0 c 2.402,-7.367 5.266,-15.246 12,-19 l -1,-1 c 2.859,-4.551 10.016,-2.645 16,-3 14.059,2.266 26.227,7.996 38,16 1.59,3.211 -1.273,8.223 3,10 -2.602,1.801 0.977,4.188 0,7 3.84,2.918 5.035,8.168 5,13 0.035,5.668 -3.066,10.918 -1,16 -6.125,3.988 -7.316,11.863 -9,19 0.965,1.691 -0.465,4.32 -2,6 l 0,-1 -7,16 0,-1 c 0.898,-3.031 2.332,-7.09 2,-10 l -1,0 c -2.965,3.387 -3.441,9.355 -6,14 -0.781,-0.352 -1.258,-1.781 -3,-1 l -6,12 c -0.609,-1.328 -0.848,-4.906 -3,-3 -2.383,4.777 -6.68,9.789 -9,15 -1.258,-1.156 -1.734,-3.066 -3,-2 l -9,10 -3,0 c -2.484,5.402 -5.824,9.223 -9,14 l -2,-1 c -4.844,3.383 -9.141,8.152 -14,12 -4.207,6.176 -8.98,12.621 -11,19 l 0,-6 -2,1 -3,18 c -2.762,-0.285 2.008,-4.82 -3,-4 -0.004,7.77 -1.434,17.793 3,24 0.34,-5.25 -2.285,-10.262 0,-16 l 2,5 c 1.203,-1.887 -1.898,-6.66 0,-10 l 1,2 c 2.109,6.59 2.352,14.465 6,20 l 1,-1"
         style="fill:#ff0080;fill-opacity:1;fill-rule:nonzero;stroke:none"
         id="path5727" /><path
         d="m 554.25,832.25 c -1.203,-0.238 -2.637,-0.715 -4,0 1.363,0.715 2.555,0.477 4,0"
         style="fill:#ff409f;fill-opacity:1;fill-rule:nonzero;stroke:none"
         id="path5729" /><path
         d="m 457.25,811.25 0,-5 0,5"
         style="fill:#ff409f;fill-opacity:1;fill-rule:nonzero;stroke:none"
         id="path5731" /><path
         d="m 474.25,787.25 c 0.77,-2.254 0.77,-5.117 4,-6 -0.844,-0.789 -0.605,-1.98 -2,-2 -4.574,5.508 -7.195,12.668 -9,20 -0.105,3.883 -2.016,6.27 0,10 0.609,-7.07 3.234,-15.426 7,-22"
         style="fill:#ff409f;fill-opacity:1;fill-rule:nonzero;stroke:none"
         id="path5733" /><path
         d="m 491.25,806.25 c 0.949,-5.027 3.098,-10.277 7,-14 3.016,3.961 -2.234,6.828 -3,10 0.289,1.121 1.48,0.406 2,1 2.824,-7.277 8.789,-10.855 12,-17 0.129,0.656 0.367,1.133 0,2 6.332,-9.699 19.219,-16.379 27,-24 0.09,-1.449 0.09,-2.402 -1,-3 l -13,11 c -0.227,-2.051 -2.133,-1.812 -4,-1 -8.156,6.348 -10.543,14.938 -17,22 0.016,-0.617 -0.699,-2.766 -2,-3 -5.383,1.668 -7.289,6.918 -9,12 -0.199,2.316 -0.437,5.418 2,7 0.664,-0.629 0.188,-2.297 -1,-3"
         style="fill:#ff409f;fill-opacity:1;fill-rule:nonzero;stroke:none"
         id="path5735" /><path
         d="m 270.25,784.25 c -14.277,-1.879 -30.98,-1.879 -45,-6 l -1,1 c -3.355,-1.891 -6.934,-3.086 -11,-4 0.008,1.633 2.395,2.348 4,3 16.055,4.359 32.277,6.746 49,8 l 5,-1 -1,-1"
         style="fill:#ff409f;fill-opacity:1;fill-rule:nonzero;stroke:none"
         id="path5737" /><path
         d="m 521.25,773.25 c -3.52,1.246 -6.383,4.348 -8,8 l 8,-8"
         style="fill:#ff409f;fill-opacity:1;fill-rule:nonzero;stroke:none"
         id="path5739" /><path
         d="m 519.25,743.25 3,-8 -3,8"
         style="fill:#ff409f;fill-opacity:1;fill-rule:nonzero;stroke:none"
         id="path5741" /><path
         d="m 156.25,743.25 c -0.258,-2.168 -3.121,-3.359 -6,-4 l -12,-6 c 2.234,2.82 4.379,3.059 9,5 3.254,1.402 6.117,2.594 9,5"
         style="fill:#ff409f;fill-opacity:1;fill-rule:nonzero;stroke:none"
         id="path5743" /><path
         d="m 440.25,731.25 c -2.215,1.242 -2.695,3.391 -4,5 l 4,-5"
         style="fill:#ff409f;fill-opacity:1;fill-rule:nonzero;stroke:none"
         id="path5745" /><path
         d="m 295.25,733.25 c -3.008,-0.281 -4.918,-3.621 -7,-6 3.273,-2.156 -1.496,-4.781 -2,-7 -1.406,-1.363 -3.793,-0.645 -5,-1 l -8,-8 2,-1 c -1.859,-2.34 -4.246,-6.16 -8,-6 l -8,-9 0,-2 c -9.961,-8.25 -20.457,-13.742 -30,-22 -1.434,-0.094 -2.867,-0.57 -5,0 -0.016,1.34 3.566,3.008 4,4 l 0,5 c -4.73,0.453 -2.82,-4.32 -6,-5 -2.07,-2.184 -3.98,-4.809 -6,-4 l -1,1 9,9 c -2.641,3.273 4.996,6.137 1,10 -5.547,-6.012 -7.695,-17.23 -16,-20 -2.91,-2.004 -5.297,-6.777 -9,-8 l -1,1 c -4.84,-5.504 -6.273,-11.469 -10,-17 l -2,0 c 0.957,3.383 2.625,7.199 5,11 -0.703,1.691 -2.137,3.359 -4,4 -2.43,8.906 2.578,15.352 2,23 l 1,5 c 1.965,3.816 3.637,8.59 7,12 0.691,5.898 1.887,12.105 5,16 l 0,6 c 1.18,0.129 4.281,-0.352 3,-3 -0.625,-1.645 -0.863,-3.793 -1,-6 4.43,3.637 6.34,10.559 12,15 l 1,0 c -6.184,-7.543 -11.434,-18.043 -15,-27 l 0,-1 1,0 12,15 c 0.59,0.922 1.305,0.445 2,0 -6.898,-9.102 -13.102,-16.5 -18,-26 2.035,-1 2.273,3.055 5,2 l 8,10 1,-1 c -6.957,-9.852 -15.785,-20.594 -21,-33 0.684,-1.195 -0.75,-2.867 0,-4 2.828,1.852 2.59,5.191 6,7 2.793,-1.57 -1.262,-3.719 -2,-6 l -1,-1 1,0 c 1.691,1.852 3.602,2.09 5,4 l 1,-1 12,16 1,-1 c 3.93,4.852 6.555,9.863 10,15 1.566,-2.512 2.281,0.59 4,1 3.531,7.227 4.008,17.488 5,27 l 1,0 c 0.395,-4.738 0.871,-10.227 1,-14 3.926,3.059 4.645,9.5 10,12 1.324,-2.02 -1.062,-2.738 -1,-4 2.563,-3.27 3.996,3.648 6,0 0.141,-2.316 -3.437,-2.078 -2,-5 l -1,1 c -2.824,-3.566 -7.836,-6.668 -9,-12 l 1,-2 c 1.598,0.41 2.789,2.32 5,3 -2.449,-4.977 -8.414,-8.316 -12,-13 0.723,-0.809 -1.426,-1.523 0,-2 1.199,0.238 2.395,2.387 4,2 -1.605,-4.148 -5.426,-7.012 -7,-11 l 1,-1 c 12.027,7.852 24.438,15.488 34,25 4.516,6.48 8.809,14.117 16,16 2.117,5.754 5.695,12.195 12,14 0.617,-0.848 1.57,-0.848 1,-2"
         style="fill:#ff0080;fill-opacity:1;fill-rule:nonzero;stroke:none"
         id="path5747" /><path
         d="m 133.25,732.25 c -2.312,-4.055 -7.801,-4.531 -11,-7 -0.141,0.797 1.051,0.32 2,1 0.008,0.273 -0.707,0.516 -1,1 l -3,-1 c 3.531,3.379 8.539,3.617 13,6"
         style="fill:#ff409f;fill-opacity:1;fill-rule:nonzero;stroke:none"
         id="path5749" /><path
         d="m 277.25,730.25 c -1.473,-3.246 -2.668,-6.828 -2,-11 l -2,-1 -1,2 -6,-9 c -1.926,-1.668 -2.883,0.957 -3,3 l 0,8 c -5.133,-5.512 -7.996,-12.668 -13,-19 2.621,7.762 7.867,15.637 13,23 l 4,4 c 1.605,-0.145 0.414,-1.578 0,-2 4.707,-2.203 -1.734,-3.156 -1,-6 -1.211,-1.93 -0.496,-5.75 0,-8 4.039,5.355 5.945,11.32 9,17 1.004,0.285 1.719,-0.191 2,-1"
         style="fill:#ff409f;fill-opacity:1;fill-rule:nonzero;stroke:none"
         id="path5751" /><path
         d="m 180.25,715.25 -1,-4 c -3.453,0.48 -0.59,3.582 -1,6 l 2,3 c 2.469,-0.883 -1.113,-3.031 0,-5"
         style="fill:#ff409f;fill-opacity:1;fill-rule:nonzero;stroke:none"
         id="path5753" /><path
         d="m 192.25,720.25 c -9.293,-13.055 -16.691,-27.137 -25,-41 3.773,3.602 8.785,9.328 12,12 -6.555,-7.684 -12.758,-17.23 -18,-27 -0.008,-1.445 0.707,-3.832 -1,-4 -1.156,0.168 -1.871,0.645 -2,1 1.559,6.566 6.332,11.578 8,18 l 10,19 c 0.5,0.828 -0.453,2.023 0,4 l -1,0 c -6.848,-9.613 -13.77,-19.398 -16,-32 -0.871,-0.285 -1.348,-0.047 -2,1 l 0,0 c -1.258,-1.523 -1.02,-3.91 0,-5 -2.211,-3.922 -1.973,-8.695 -3,-13 4.367,-1.664 0.789,-8.105 2,-11 1.414,3.133 6.422,7.188 3,10 1.992,8.406 7.004,15.805 13,22 l 1,-1 c -4.371,-6.629 -9.859,-13.07 -12,-20 l 0,-1 c 0.707,1.246 1.422,1.484 3,1 l 1,-2 c 1.004,1.055 2.672,4.871 5,4 0.297,-3.184 -2.328,-5.812 -3,-9 4.492,2.473 7.594,8.918 10,14 l -1,3 10,21 c 0.762,0.512 1.957,0.512 2,0 l 1,-1 c -8.203,-11.137 -6.531,-24.98 -17,-35 -1.465,-0.957 -3.133,-2.391 -4,-3 l -1,1 c -0.996,-2.539 -2.906,-3.254 -4,-4 -2.484,-2.594 -1.77,-8.562 -6,-7 l 0,4 c -1.496,-3.176 -1.02,-7.949 -5,-10 l 0,-3 c -4.371,-6.883 -10.336,-14.281 -13,-21 1.949,0.516 3.859,2.664 6,4 -1.902,-5.156 -5.961,-7.066 -8,-11 l -8,-13 c -0.461,-0.727 -1.891,-0.008 -2,1 1.301,2.094 3.449,4.719 2,7 -5.949,-1.566 -11.195,-6.34 -16,-8 l 0,2 20,10 c 3.652,7.32 7.711,14.48 11,22 -4.723,-5.609 -9.016,-13.961 -14,-19 l -2,0 c 1.496,2.652 3.883,5.039 6,8 0.508,9.449 8.859,16.848 12,25 2.586,0.676 1.391,-0.992 2,-2 -2.758,-4.723 -6.574,-8.777 -8,-14 1.426,4.742 10.73,4.742 9,11 l 2,2 c -1.699,8.211 0.688,17.043 1,26 -3.176,-7.766 -7.234,-14.687 -9,-23 l -3,0 c -3.109,-8.152 -5.973,-17.461 -12,-25 l -2,1 c -2.707,-4.68 -5.094,-10.406 -10,-13 -1.301,1.164 0.371,2.117 1,4 4.621,3.605 6.77,10.289 10,16 2.734,4.313 2.734,12.188 8,14 -1.449,-4.914 -4.551,-10.402 -6,-16 8.609,12.996 10.039,28.508 18,42 l 2,0 c 2.688,9.656 7.219,18.965 8,29 l 10,25 c 0.672,-0.191 1.867,-0.668 2,-2 -2.52,-6.309 -7.531,-12.273 -8,-19 -2.156,-0.672 -0.484,-1.625 -1,-3 2.422,-1.012 2.664,1.613 4,3 2.004,5.535 5.105,11.5 9,16 1.832,1.227 4.457,0.273 4,-2 l 0,-3 1,1 c 4.707,5.465 6.375,13.582 12,19 0.578,-0.168 1.297,0.07 2,0"
         style="fill:#ff0080;fill-opacity:1;fill-rule:nonzero;stroke:none"
         id="path5755" /><path
         d="m 361.25,690.25 6,-2 -3,0 c -0.426,-5.16 6.254,-8.023 8,-13 1.836,-1.945 5.891,-4.094 5,-7 l -4,2 c 0.598,-2.434 5.129,-4.582 3,-8 l -4,2 3,-7 2,1 c 2.086,-1.652 -0.301,-4.277 1,-6 1.086,-3.289 6.574,-5.199 5,-8 -1.531,0.418 -2.246,1.609 -3,3 -0.437,-4.016 2.188,-8.074 1,-12 -1.676,-0.605 -3.586,0.109 -4,2 -1.973,-5.23 -2.449,-12.152 -9,-14 -2.754,-1.496 -4.426,-6.746 -9,-4 -3.777,-3.461 -11.176,-4.656 -11,-10 -1.844,-1.574 -5.184,-2.293 -5,-5 -7.344,-3.496 -13.785,-7.078 -21,-9 -1.613,3.832 7.691,1.922 5,7 l 2,1 c -4.559,0.605 -9.809,-1.781 -15,-2 -3.16,-1.211 -8.648,0.934 -10,-2 -12.488,-3.508 -24.895,2.934 -36,7 -2.02,-0.484 -0.586,-2.156 -2,-2 1.414,1.516 -1.211,2.707 0,4 1.891,2.051 4.754,0.379 7,0 8.492,-4.871 18.273,-9.168 29,-8 -3.09,1.695 -9.055,2.891 -10,8 l 0,1 c 2.855,-3.008 6.195,-5.156 10,-5 0.727,2.945 3.59,-0.871 6,0 5.465,-0.395 10.477,-0.156 13,3 4.395,-1.723 8.691,1.379 13,0 1.18,4.242 10.246,2.094 8,8 6.066,2.688 12.984,2.688 18,6 4.289,-0.211 2.621,4.801 6,7 3.777,5.914 10.461,9.734 11,18 -0.062,7.246 -7.699,13.215 -6,21 l -8,11 c -6.824,3.168 -11.832,7.227 -20,8 -6.629,4.477 -14.5,-0.059 -22,0 -6.816,-0.059 -13.977,-1.25 -20,-4 -0.418,-2.023 -0.656,0.363 -2,-1 -0.09,1.602 -1.281,0.168 -2,0 -0.238,0.168 -0.715,-0.309 -1,-1 0.047,-0.262 0.523,-0.742 1,-1 l 1,0 c -2.191,-0.934 -7.203,-0.695 -10,-3 1.367,-0.559 3.754,-0.32 4,-2 -1.918,-4.285 -5.258,-4.523 -9,-6 -0.555,-0.195 -1.27,0.758 -1,2 1.641,0.906 2.594,2.34 5,3 -3.598,0.77 -8.371,-3.762 -11,-1 4.539,4.395 11.934,5.828 18,7 l -1,4 c -1.488,1.512 -3.871,-2.785 -4,1 2.754,2.418 8.238,2.656 11,5 7.5,1 15.613,1.477 19,8 -0.762,1.352 -1.953,1.352 -1,3 9.066,-5.465 22.43,-4.988 34,-8 -6.559,3.727 -15.867,4.441 -23,10 l 1,1 c 9.477,-6.559 21.883,-6.078 31,-13"
         style="fill:#ff0080;fill-opacity:1;fill-rule:nonzero;stroke:none"
         id="path5757" /><path
         d="m 240.25,701.25 -3,-2 c -2.039,1.023 0.824,2.453 1,4 1.02,-0.59 0.781,-2.023 2,-2"
         style="fill:#ff409f;fill-opacity:1;fill-rule:nonzero;stroke:none"
         id="path5759" /><path
         d="m 331.25,692.25 c -4.887,0.863 -8.469,-2 -14,0 0.523,1.578 2.91,2.297 5,3 2.918,0.012 6.258,-0.945 9,-3"
         style="fill:#ff409f;fill-opacity:1;fill-rule:nonzero;stroke:none"
         id="path5761" /><path
         d="m 80.25,686.25 6,6 1,0 -7,-6"
         style="fill:#ff409f;fill-opacity:1;fill-rule:nonzero;stroke:none"
         id="path5763" /><path
         d="m 551.25,686.25 -3,5 3,-4 0,-1"
         style="fill:#ff409f;fill-opacity:1;fill-rule:nonzero;stroke:none"
         id="path5765" /><path
         d="m 352.25,690.25 c -0.832,-0.477 -2.266,-0.477 -2,-2 l 2,-2 c -3.695,-0.059 -5.605,2.09 -8,3 2.156,3.148 5.258,0.523 8,1"
         style="fill:#ff409f;fill-opacity:1;fill-rule:nonzero;stroke:none"
         id="path5767" /><path
         d="m 360.25,687.25 c -2.391,-0.582 -4.539,1.566 -6,3 2.176,0 4.563,-0.957 6,-3"
         style="fill:#ff409f;fill-opacity:1;fill-rule:nonzero;stroke:none"
         id="path5769" /><path
         d="m 197.25,686.25 5,3 -6,-10 c -4.941,-1.41 -4.941,-8.809 -6,-14 0.34,8.293 2.965,16.645 6,24 -0.41,-1.148 0.066,-2.82 1,-3"
         style="fill:#ff409f;fill-opacity:1;fill-rule:nonzero;stroke:none"
         id="path5771" /><path
         d="m 233.25,688.25 c -1.141,-1.102 -2.094,-3.012 -3,-4 0.191,1.941 0.43,3.137 3,4"
         style="fill:#ff409f;fill-opacity:1;fill-rule:nonzero;stroke:none"
         id="path5773" /><path
         d="m 128.25,680.25 c -0.176,1.168 1.258,3.555 2,5 l -2,-5"
         style="fill:#ff409f;fill-opacity:1;fill-rule:nonzero;stroke:none"
         id="path5775" /><path
         d="m 77.25,678.25 5,4 -5,-4 0,0"
         style="fill:#ff409f;fill-opacity:1;fill-rule:nonzero;stroke:none"
         id="path5777" /><path
         d="m 323.25,677.25 c -3.57,-1.32 -7.387,-1.797 -10,-4 -13.137,-1.617 -24.59,-6.387 -36,-13 4.016,1.121 7.832,3.508 12,2 0.605,-0.16 0.367,-0.879 0,-1 -7.746,0.84 -12.758,-5.605 -20,-8 l -1,-2 5,2 -1,-1 c 8.059,-0.902 15.695,0.293 21,6 -0.055,0.734 -1.008,2.406 -1,4 5.238,1.27 10.012,4.133 15,5 l 1,-1 c -4.316,-3.684 -13.145,-4.16 -14,-10 l -8,-6 3,-1 c -3.215,-1.719 -7.984,-3.867 -13,-5 -2.145,-4.117 -7.395,-1.73 -11,-3 l 0,-3 -25,-4 c -0.98,1.109 -3.605,-1.039 -5,-1 l -12,-7 c 1.941,-4.734 9.336,-2.824 13,-2 l 14,5 c 2.621,-2.246 5.484,3.008 8,0 2.973,-0.336 4.879,3.961 7,1 -3.312,-3.246 -8.562,-4.676 -12,-7 l 2,-1 c -4.051,-2.883 -9.539,-3.359 -14,-7 -3.891,1.254 -7.707,-0.656 -12,-1 2.859,-2.039 6.68,-1.086 9,-2 -3.039,-4.336 -8.047,0.914 -13,-1 l 0,-3 c -4.832,0.617 -9.367,3.004 -14,3 l -1,-1 c -1.523,0.289 0.625,1.48 0,2 -4.625,-0.039 -8.445,-2.668 -12,-5 -4.316,-2.437 -7.66,-5.066 -10,-8 l 13,2 1,3 3,-2 c 5.145,1.844 9.68,4.945 15,6 -1.023,-3.199 -5.797,-3.918 -9,-6 8.215,0.414 15.609,3.992 24,4 1.633,-0.246 2.109,-1.918 2,-3 2.258,0.129 5.836,1.563 7,-1 0.984,-2.93 -4.027,-2.211 -5,-4 l -1,-1 1,0 15,3 -13,-5 c -1.027,-0.461 -1.027,-1.895 -2,-2 -0.457,2.492 -3.562,0.582 -5,0 l -1,-1 c 7.926,-1.52 15.086,1.344 22,-2 l 0,-1 c -1.426,-1.383 -3.336,0.527 -5,0 -6.687,1.242 -15.754,-2.102 -21,2 -2.152,-0.281 -5.969,-1.473 -8,1 -0.117,0.629 1.078,1.105 2,1 2.895,0.105 6.711,-0.133 10,2 -9.969,2.641 -17.367,-5.234 -26,-4 -0.672,0.672 -1.148,1.391 0,2 l 3,0 0,1 c -7.488,2.922 -16.316,-0.418 -24,-3 -0.668,0.434 -0.43,1.629 0,3 1.477,0.297 2.91,0.539 4,2 -2.762,0.684 -7.293,-0.508 -8,3 l 0,1 c 0.945,-1.645 3.094,-0.93 4,-1 2.434,5.32 9.352,7.469 14,11 5.613,4.105 12.293,6.73 20,7 0.883,2.355 4.465,1.879 6,3 -3.207,-0.883 -6.309,8.664 -10,2 l 0,-2 c -2.273,0.313 -1.559,2.223 -1,3 1.59,1.848 3.977,2.324 5,4 7.566,4.051 15.918,8.586 25,12 0.938,-0.551 1.895,0.406 2,2 l 11,3 c -0.609,0.418 -2.277,1.133 -1,2 6.355,4.145 12.082,9.395 19,13 -0.711,0.93 -1.43,-0.742 -2,0 4.152,5.465 12.266,8.805 19,11 10.207,2.816 19.75,7.113 30,8 l 0,-1"
         style="fill:#ff0080;fill-opacity:1;fill-rule:nonzero;stroke:none"
         id="path5779" /><path
         d="m 94.25,655.25 0,0 3,1 c -9.2617,-12.539 -10.6953,-30.199 -20,-44 -0.9531,-1.234 0,-5.055 -3,-5 2.7617,5.438 5.3867,9.973 6,15 -3.9531,-6.937 -7.5352,-15.293 -13,-22 8.5664,15.063 16.2031,33.199 24,50 l 2,9 c -11.7031,-17.687 -21.9648,-39.164 -33,-58 l -14,-24 c 14.0586,27.082 30.2852,55.961 45,83 -14.9531,-13.676 -30.2266,-30.141 -45,-44 -0.2578,0.254 -0.2578,-0.699 -1,0 l -1,0 c 18.9219,17.438 34.9102,34.621 53,53 -0.6719,1.43 -0.4336,2.383 0,3 2.906,-2.762 5.055,3.68 8,4 l 1,1 c -6.332,-6.332 -9.9102,-13.016 -12,-22"
         style="fill:#ff0080;fill-opacity:1;fill-rule:nonzero;stroke:none"
         id="path5781" /><path
         d="m 475.25,650.25 -1,-1 c -8.059,6.871 -17.367,13.316 -22,23 l 0,1 c 5.59,-8.777 15.609,-15.457 23,-23"
         style="fill:#ff409f;fill-opacity:1;fill-rule:nonzero;stroke:none"
         id="path5783" /><path
         d="m 361.25,660.25 c -1.48,-2.457 -5.539,-1.027 -8,-3 l -11,-5 0,1 c 5.586,3.828 12.27,6.453 18,8 l 1,-1"
         style="fill:#ff409f;fill-opacity:1;fill-rule:nonzero;stroke:none"
         id="path5785" /><path
         d="m 47.25,630.25 c -7.4609,-0.617 -10.0859,-11.121 -16,-16 9.4922,17.77 23.0938,32.324 37,45 l -21,-29"
         style="fill:#ff409f;fill-opacity:1;fill-rule:nonzero;stroke:none"
         id="path5787" /><path
         d="m 351.25,653.25 c -2.457,-3.332 -7.23,-3.57 -11,-6 l 0,-3 c -9.594,-2.926 -19.375,-6.027 -29,-9 l 0,2 c 8.43,2.164 16.305,5.984 25,8 -0.344,1.324 -2.969,-0.824 -3,1 2.18,2.949 6.715,3.188 10,5 2.68,1.055 5.305,2.246 8,3 l 0,-1"
         style="fill:#ff409f;fill-opacity:1;fill-rule:nonzero;stroke:none"
         id="path5789" /><path
         d="m 364.25,644.25 c -7.344,-4.355 -15.934,-6.504 -25,-9 l 0,1 c 9.305,5.074 19.563,10.086 29,16 4.641,-3.766 -5.141,-3.527 -4,-8"
         style="fill:#ff0080;fill-opacity:1;fill-rule:nonzero;stroke:none"
         id="path5791" /><path
         d="m 558.25,646.25 c 0.762,1.52 -0.91,4.145 1,5 1.906,-1.332 -0.719,-4.199 -1,-5"
         style="fill:#ff409f;fill-opacity:1;fill-rule:nonzero;stroke:none"
         id="path5793" /><path
         d="m 276.25,647.25 -18,-2 8,5 c 2.605,-3.676 8.332,-1.289 10,-3"
         style="fill:#ff409f;fill-opacity:1;fill-rule:nonzero;stroke:none"
         id="path5795" /><path
         d="m 114.25,648.25 c -0.73,-1.437 -0.254,-3.824 -2,-3 0.316,1.086 1.27,1.801 2,3"
         style="fill:#ff409f;fill-opacity:1;fill-rule:nonzero;stroke:none"
         id="path5797" /><path
         d="m 75.25,637.25 c -10.4062,-11.676 -22.1016,-22.414 -31,-36 -1.3594,-0.258 -2.5547,-1.449 -3,0 12.6172,14.301 24.3086,29.098 38,41 -1.5234,-1.164 -1.7617,-3.789 -4,-5"
         style="fill:#ff409f;fill-opacity:1;fill-rule:nonzero;stroke:none"
         id="path5799" /><path
         d="m 351.25,635.25 c -3.891,-2.277 -9.379,-3.473 -12,-6 l 11,0 c -0.266,-2.246 -4.559,-1.766 -7,-2 l -26,-2 c -2.102,2.711 -7.113,0.563 -10,2 l 2,2 c 10.191,-1.766 21.645,-0.336 31,3 3.531,1.438 7.586,2.395 10,5 2.121,0.02 1.406,-1.652 1,-2"
         style="fill:#ff0080;fill-opacity:1;fill-rule:nonzero;stroke:none"
         id="path5801" /><path
         d="m 108.25,612.25 c 1.215,1.391 -0.457,2.586 -1,3 -1.605,0.777 0.305,3.164 0,5 1.734,2.223 4.598,2.461 6,5 l -5,-13"
         style="fill:#ff409f;fill-opacity:1;fill-rule:nonzero;stroke:none"
         id="path5803" /><path
         d="m 250.25,622.25 c -6.687,-2.883 -16.23,-5.508 -24,-5 5.383,1.641 10.156,5.461 16,4 1.789,1.461 5.133,1.938 8,1"
         style="fill:#ff409f;fill-opacity:1;fill-rule:nonzero;stroke:none"
         id="path5805" /><path
         d="m 530.25,622.25 c -1.543,-0.734 -2.5,-3.121 -4,-2 1.023,0.789 3.172,1.504 4,2"
         style="fill:#ff409f;fill-opacity:1;fill-rule:nonzero;stroke:none"
         id="path5807" /><path
         d="m 96.25,600.25 c -1.8203,0.98 1.5195,4.563 1,7 1.7148,3.766 3.145,7.344 5,11 -1.617,-5.801 -2.5703,-12.723 -6,-18"
         style="fill:#ff409f;fill-opacity:1;fill-rule:nonzero;stroke:none"
         id="path5809" /><path
         d="m 502.25,614.25 c -9.098,-4.906 -19.117,-8.246 -29,-8 8.926,2.141 18.949,5.48 29,8"
         style="fill:#ff409f;fill-opacity:1;fill-rule:nonzero;stroke:none"
         id="path5811" /><path
         d="m 127.25,610.25 2,4 -1,-3 -1,-1"
         style="fill:#ff409f;fill-opacity:1;fill-rule:nonzero;stroke:none"
         id="path5813" /><path
         d="m 53.25,576.25 c 1.332,14.48 8.9688,27.367 19,38 -7.8867,-11.348 -15.5195,-24.473 -19,-38"
         style="fill:#ff409f;fill-opacity:1;fill-rule:nonzero;stroke:none"
         id="path5815" /><path
         d="m 35.25,579.25 0,0 c 9.7891,10.766 13.6055,24.367 25,34 -9.7227,-11.066 -14.9727,-22.758 -25,-34"
         style="fill:#ff409f;fill-opacity:1;fill-rule:nonzero;stroke:none"
         id="path5817" /><path
         d="m 233.25,602.25 c -3.047,-1.258 -6.867,-1.496 -10,-2 2.895,1.457 6.234,2.652 10,2"
         style="fill:#ff409f;fill-opacity:1;fill-rule:nonzero;stroke:none"
         id="path5819" /><path
         d="m 102.25,595.25 1,1 c 1.203,-5.52 -5.4805,-4.086 -8,-7 l 5,12 c 0.859,-1.449 -1.2852,-4.793 2,-6"
         style="fill:#ff409f;fill-opacity:1;fill-rule:nonzero;stroke:none"
         id="path5821" /><path
         d="m 346.25,596.25 c -10.105,-6.953 -22.035,-10.531 -33,-16 l -1,-1 c -1.16,8.379 12.441,6.23 18,11 5.18,2.629 12.098,4.059 16,9 1.348,0.07 1.109,-1.836 0,-3"
         style="fill:#ff409f;fill-opacity:1;fill-rule:nonzero;stroke:none"
         id="path5823" /><path
         d="m 61.25,589.25 6,10 c -0.2617,-4.703 -4.793,-7.328 -6,-10"
         style="fill:#ff409f;fill-opacity:1;fill-rule:nonzero;stroke:none"
         id="path5825" /><path
         d="m 20.25,585.25 7,13 0,-3 -7,-10"
         style="fill:#ff409f;fill-opacity:1;fill-rule:nonzero;stroke:none"
         id="path5827" /><path
         d="m 90.25,587.25 5,10 c -1.2969,-3.656 -1.2969,-8.191 -5,-10"
         style="fill:#ff409f;fill-opacity:1;fill-rule:nonzero;stroke:none"
         id="path5829" /><path
         d="m 78.25,575.25 c 2.1016,4.5 4.9648,7.605 7,11 l -7,-11"
         style="fill:#ff409f;fill-opacity:1;fill-rule:nonzero;stroke:none"
         id="path5831" /><path
         d="m 87.25,578.25 -1,0 4,8 c 0.8398,-2.68 -1.5469,-5.543 -3,-8"
         style="fill:#ff409f;fill-opacity:1;fill-rule:nonzero;stroke:none"
         id="path5833" /><path
         d="m 243.25,585.25 c 1.27,-0.246 1.027,-1.68 0,-2 -5.414,-2.066 -12.332,-0.871 -17,-1 -1.059,1.32 -4.402,1.082 -3,4 3.371,0.422 7.43,-1.965 11,-1 l 9,0"
         style="fill:#ff409f;fill-opacity:1;fill-rule:nonzero;stroke:none"
         id="path5835" /><path
         d="m 21.25,574.25 c -0.3125,5.742 5.6523,6.219 8,11 -3.0625,-3.828 -5.2109,-9.793 -8,-11"
         style="fill:#ff409f;fill-opacity:1;fill-rule:nonzero;stroke:none"
         id="path5837" /><path
         d="m 193.25,581.25 c -1.941,-2.453 -5.285,1.367 -7,3 2.195,-2.352 4.82,-0.68 7,-3"
         style="fill:#ff409f;fill-opacity:1;fill-rule:nonzero;stroke:none"
         id="path5839" /><path
         d="m 212.25,578.25 c -4.238,0.309 -7.582,-1.363 -12,1 2.512,5.516 8.477,0.023 12,-1"
         style="fill:#ff409f;fill-opacity:1;fill-rule:nonzero;stroke:none"
         id="path5841" /><path
         d="m 203.25,575.25 c -3.59,-0.75 -7.648,-0.75 -11,0 2.875,-0.031 5.262,6.172 8,1 0.363,-0.555 1.555,-1.27 3,-1"
         style="fill:#ff409f;fill-opacity:1;fill-rule:nonzero;stroke:none"
         id="path5843" /><path
         d="m 179.25,576.25 -9,-2 c 1.254,0.969 3.879,1.922 6,4 1.457,-0.406 2.172,-0.883 3,-2"
         style="fill:#ff409f;fill-opacity:1;fill-rule:nonzero;stroke:none"
         id="path5845" /><path
         d="m 17.25,556.25 c 1.7773,7.512 8.2227,13 12,20 -3.0625,-7.238 -8.0742,-13.203 -12,-20"
         style="fill:#ff409f;fill-opacity:1;fill-rule:nonzero;stroke:none"
         id="path5847" /><path
         d="m 564.25,575.25 -5,-4 5,4"
         style="fill:#ff409f;fill-opacity:1;fill-rule:nonzero;stroke:none"
         id="path5849" /><path
         d="m 74.25,564.25 c -2.9648,1.422 -2.25,-2.637 -4,-3 l 7,13 c 3.1016,-2.852 -1.1914,-6.91 -3,-10"
         style="fill:#ff409f;fill-opacity:1;fill-rule:nonzero;stroke:none"
         id="path5851" /><path
         d="m 242.25,573.25 c -3.457,-4.238 -11.332,-6.148 -17,-4 -0.297,0.719 -0.773,1.91 0,2 5.43,-0.328 11.871,-0.328 15,3 1.406,0.25 1.406,-0.465 2,-1"
         style="fill:#ff409f;fill-opacity:1;fill-rule:nonzero;stroke:none"
         id="path5853" /><path
         d="m 305.25,520.25 c -8.715,-8.992 -6.805,-22.117 -10,-35 -1.34,-13.133 3.672,-24.109 5,-37 -1.09,-20.043 3.684,-38.184 2,-59 l 1,-35 c 13.805,-15.062 4.738,-34.871 2,-52 l 5,-61 c 2.75,-26.402 5.137,-51.223 8,-77 l 0,-9 c -1.672,7.809 -2.625,15.684 -5,23 l -1,-1 -3,11 c 2.32,4.164 -0.785,9.414 -1,14 -0.738,16.418 -1.691,32.406 -3,49 1.07,1.066 -1.793,2.977 0,4 1.07,11.387 -4.418,19.977 -4,31 -1.137,11.887 -1.613,22.867 -1,35 -2.281,0.039 -0.137,-3.543 -2,-4 -1,4.277 -1.953,9.527 -1,14 -1.191,0.777 -0.715,-0.895 -1,-1 l 0,0 c 0.523,16.336 0.762,32.563 3,49 0.148,0.27 -0.805,0.27 -1,0 l -1,-2 c -1.668,8.953 -0.238,21.125 3,30 -0.613,1.148 -1.805,-0.047 -3,0 l -1,-6 c -2.578,6.91 1,14.547 0,22 l -2,-1 0,3 -1,0 0,11 c 1.137,-0.883 1.855,0.07 3,1 -0.906,8.141 -2.102,16.016 -2,24 -2.727,0.367 -0.34,3.23 -2,4 -1.203,9.492 -0.008,22.383 2,31 -1.293,1.406 -2.008,-1.699 -2,-1 -0.488,5.984 2.617,11.234 3,17 -0.383,0.918 -1.816,0.918 -2,0 -2.918,-5.289 -3.156,-11.492 -5,-17 l -1,1 c 2.844,8.801 3.559,18.828 6,27 l -2,1 c 0.512,10.156 2.184,19.941 5,29 0.047,-1.184 2.434,-2.613 3,0 4.445,4.547 5.16,13.375 13,15 -2.828,-4.965 -10.941,-10.691 -10,-18 l 1,1 c 5.453,4.875 11.66,11.32 13,18 l -4,-4 c 0.273,5.91 7.43,6.148 11,9 1.68,-19.559 -3.809,-40.082 -18,-54"
         style="fill:#ff409f;fill-opacity:1;fill-rule:nonzero;stroke:none"
         id="path5855" /><path
         d="m 235.25,560.25 c -3.855,-2.93 -9.105,-1.738 -13,-1 4.371,-0.262 8.43,2.363 13,1"
         style="fill:#ff409f;fill-opacity:1;fill-rule:nonzero;stroke:none"
         id="path5857" /><path
         d="m 280.25,559.25 c -0.656,-3.363 -1.371,-7.66 -4,-10 0.48,1.863 3.105,6.16 0,9 0.957,0.5 2.391,1.215 4,1"
         style="fill:#ff409f;fill-opacity:1;fill-rule:nonzero;stroke:none"
         id="path5859" /><path
         d="m 273.25,557.25 c -1.055,-0.887 0.141,-3.512 -2,-3 l -1,2 c 0.277,0.113 1.945,0.828 3,1"
         style="fill:#ff409f;fill-opacity:1;fill-rule:nonzero;stroke:none"
         id="path5861" /><path
         d="m 80.25,531.25 c 3.6797,3.875 8.6914,8.645 13,12 l 4,4 -1,1 14,8 c -10.094,-7.047 -17.25,-20.41 -30,-25"
         style="fill:#ff409f;fill-opacity:1;fill-rule:nonzero;stroke:none"
         id="path5863" /><path
         d="m 255.25,550.25 c -7.391,-5.34 -13.594,-14.41 -22,-16 -4.004,-1.512 -6.152,-4.137 -10,-4 l -11,-8 c 0.531,5.477 6.02,10.727 7,17 l -2,0 c 3.168,0.887 7.227,6.137 10,2 3.43,0.793 4.859,6.762 8,5 2.109,3.43 6.883,5.102 11,4 1.848,2.059 5.902,2.059 9,3 l 0,-3"
         style="fill:#ff409f;fill-opacity:1;fill-rule:nonzero;stroke:none"
         id="path5865" /><path
         d="m 27.25,528.25 c 4.4258,6.395 9.9141,14.273 16,20 -4.8945,-6.684 -8.7109,-14.797 -16,-20"
         style="fill:#ff409f;fill-opacity:1;fill-rule:nonzero;stroke:none"
         id="path5867" /><path
         d="m 94.25,547.25 c -9.8398,-8.07 -17.4766,-19.047 -27,-25 0.2188,-3.594 -3.3633,-2.402 -5,-2 l 0,0 c 6.1719,6.996 14.2852,13.203 21,19 l -1,2 c 2.875,2.703 8.125,3.898 12,6 l 0,0"
         style="fill:#ff409f;fill-opacity:1;fill-rule:nonzero;stroke:none"
         id="path5869" /><path
         d="m 222.25,547.25 c -1.117,-0.91 -3.742,-2.82 -4,0 0.977,-0.195 2.168,0.523 4,0"
         style="fill:#ff409f;fill-opacity:1;fill-rule:nonzero;stroke:none"
         id="path5871" /><path
         d="m 286.25,537.25 c 0.98,-0.934 1.457,-1.887 3,-1 0.605,-1.844 -1.066,-2.797 -2,-4 -3.121,-7.148 -4.316,-15.742 -6,-24 -1.656,11.359 3.355,23.055 2,32 2.547,1.078 0.164,3.465 0,4 0.879,2.09 2.07,3.043 5,3 l -2,-10"
         style="fill:#ff409f;fill-opacity:1;fill-rule:nonzero;stroke:none"
         id="path5873" /><path
         d="m 49.25,545.25 c -3.4961,-3.684 -5.4062,-6.547 -9,-9 2.4023,3.168 3.832,8.18 8,9 0.1289,-0.102 0.6055,-0.102 1,0"
         style="fill:#ff409f;fill-opacity:1;fill-rule:nonzero;stroke:none"
         id="path5875" /><path
         d="m 279.25,537.25 2,6 -2,-6 0,0"
         style="fill:#ff409f;fill-opacity:1;fill-rule:nonzero;stroke:none"
         id="path5877" /><path
         d="m 222.25,539.25 c -0.641,0.168 -0.16,-0.07 0,0 -1.832,-1.5 0.316,-3.172 0,-5 1.508,-0.082 3.18,3.262 5,1 -0.867,-2.035 -2.535,-2.992 -4,-4 -1.879,0.77 -3.785,-1.137 -5,-3 -3.797,3.531 2.168,7.59 3,11 l 1,0"
         style="fill:#ff409f;fill-opacity:1;fill-rule:nonzero;stroke:none"
         id="path5879" /><path
         d="m 99.25,539.25 c -1.2422,-2.695 -4.8203,-1.98 -6,-3 1.1797,2.215 3.5664,1.5 6,3"
         style="fill:#ff409f;fill-opacity:1;fill-rule:nonzero;stroke:none"
         id="path5881" /><path
         d="m 92.25,534.25 c -3.7852,-1.992 -9.0352,-5.809 -14,-7 4.25,2.863 8.3047,6.203 12,8 0.8398,-0.363 1.5547,0.113 2,-1"
         style="fill:#ff409f;fill-opacity:1;fill-rule:nonzero;stroke:none"
         id="path5883" /><path
         d="m 205.25,525.25 c -0.34,1.996 2.762,2.953 1,5 2.715,0.102 2.715,3.203 4,4 l -5,-9"
         style="fill:#ff409f;fill-opacity:1;fill-rule:nonzero;stroke:none"
         id="path5885" /><path
         d="m 95.25,532.25 c -0.582,-0.707 -0.582,-1.422 0,-2 l 1,-1 -6,0 c 1.5547,0.383 2.5117,2.531 5,3"
         style="fill:#ff409f;fill-opacity:1;fill-rule:nonzero;stroke:none"
         id="path5887" /><path
         d="m 19.25,522.25 c 0.7344,2.133 3.5977,3.09 5,5 l 1,0 -6,-5"
         style="fill:#ff409f;fill-opacity:1;fill-rule:nonzero;stroke:none"
         id="path5889" /><path
         d="m 289.25,517.25 c -2.496,-5.277 -1.543,-12.437 -4,-18 l -1,0 c 0.355,9.859 1.785,19.883 4,28 0.41,-2.867 -1.02,-6.207 1,-10"
         style="fill:#ff409f;fill-opacity:1;fill-rule:nonzero;stroke:none"
         id="path5891" /><path
         d="m 47.25,516.25 c 3.5156,3.598 5.8984,7.18 10,10 -2.1914,-3.773 -6.2461,-6.879 -10,-10"
         style="fill:#ff409f;fill-opacity:1;fill-rule:nonzero;stroke:none"
         id="path5893" /><path
         d="m 208.25,522.25 1,-1 c -3.148,-2.117 -5.773,-6.172 -9,-6 -0.113,-2.559 -5.125,-3.754 -3,-6 -2.125,-4.437 -5.703,-6.344 -9,-10 -0.523,-1.117 -0.523,-2.312 1,-3 l 17,15 c -12.078,-12.879 -25.68,-25.051 -40,-36 -3.816,1.879 -4.293,-2.414 -6,-4 -7.836,-7.246 -14.039,-17.508 -23,-23 l -2,-5 2,-1 1,-9 c -4.449,-0.988 -1.109,8.082 -6,3 l 1,-6 c -0.641,-0.613 0.074,2.488 -2,2 -3.652,-0.465 -0.551,-5.238 -1,-8 0.926,-4.398 1.164,-10.602 5,-12 -0.492,1.16 -1.926,2.59 0,3 1.652,-0.41 1.176,-3.035 2,-4 l 0,-2 -1,1 c 4.711,-17.844 17.355,-31.445 28,-46 -0.145,5.484 -4.918,8.109 -7,12 -4.836,7.09 -8.895,13.055 -12,21 17.664,-18.684 25.773,-42.551 41,-63 5.773,2.789 -2.102,5.414 -2,9 l -1,0 c -1.488,4.289 -5.066,7.152 -6,11 4.035,-4.086 6.66,-8.379 10,-14 -0.238,0.609 -0.477,0.371 -1,0 3.148,-0.109 1,-2.973 3,-4 8.023,-11.145 14.465,-23.793 23,-35 l 1,-4 c 8.359,-14.387 17.191,-30.137 24,-45 l 1,-1 c 1.734,1.066 0.781,2.738 3,2 3.746,-10.242 12.098,-18.117 15,-29 1.629,-12.027 3.301,-23.484 5,-36 2.355,0.348 0.926,-1.324 1,-3 -0.312,2.152 -3.176,0.48 -3,-1 -4.234,-14.984 -12.824,-27.395 -22,-40 0.109,2.582 3.926,5.684 4,9 3.984,3.129 5.652,8.855 7,15 2.234,7.219 4.859,15.094 6,23 l -1,1 -1,-3 c -1.527,3.879 2.051,8.414 0,12 -1.051,3.098 2.527,9.539 -3,9 0.758,0.301 -0.199,1.02 0,2 -4.973,-0.742 -5.449,-7.664 -9,-11 l -3,-2 c 3.688,4.383 2.973,11.063 6,15 -3.742,3.461 3.652,6.086 -1,8 0.836,4.293 -2.98,5.723 -3,9 -0.699,0.543 2.164,-1.844 2,1 -1.742,5.746 -4.844,11.715 -6,18 l -1,1 c -1.426,-4.66 2.871,-8.719 2,-13 -3.664,4.758 -2.469,12.395 -6,16 -1.957,6.18 -3.867,11.43 -7,17 -1.16,-0.078 -1.641,-1.75 -1,-3 l 1,-4 c -1.879,2.148 -6.648,7.16 -5,11 -1.648,4.512 -2.129,6.422 -3,11 -2.469,6.16 -6.285,12.129 -8,19 -2.82,-2.578 -1.863,2.195 -4,3 -2.875,3.492 -6.453,5.641 -7,9 -6.375,3.082 -8.285,11.676 -13,17 -4.828,6.371 -6.738,14.723 -14,19 -8.484,9.563 -14.93,20.781 -25,28 l 1,3 c -2.859,5.531 -4.527,12.215 -9,17 -0.062,-3.355 2.086,-6.219 3,-9 -3.777,2.066 -4.973,11.375 -9,16 l -1,-1 c -1.414,3.059 -3.086,6.875 -2,11 -0.129,-0.066 -0.129,-0.305 0,-1 0.586,0.695 0.586,1.41 0,2 -0.848,-0.113 -2.754,0.363 -3,-1 -1.187,-6.512 1.914,-10.809 3,-17 -0.605,5.238 -6.094,4.285 -7,9 0.906,0.773 1.859,-1.852 3,0 -1.379,2.922 -4.957,6.977 -2,10 -3.914,11.773 4.676,21.797 9,31 2.359,4.402 6.414,6.309 9,10 l -6,-10 1,0 c 5.277,8.695 13.152,17.527 21,25 l 2,0 c 5.184,5.176 10.91,12.098 16,17 l 1,2 6,4 0,0 c -1.828,-3.742 -5.645,-5.652 -7,-10 1.117,-0.426 3.262,-0.664 4,1 l 25,28 c 0.512,0.883 0.035,2.555 -1,3 1.273,4.566 4.375,-3.785 7,1"
         style="fill:#ff409f;fill-opacity:1;fill-rule:nonzero;stroke:none"
         id="path5895" /><path
         d="m 41.25,515.25 -1,0 c 3.1172,0.781 2.4023,5.555 6,7 1.1719,-3.355 -3.1211,-5.504 -5,-7"
         style="fill:#ff409f;fill-opacity:1;fill-rule:nonzero;stroke:none"
         id="path5897" /><path
         d="m 64.25,516.25 -15,-6 0,-2 -9,-4 c 5.0273,3.43 8.1289,8.918 14,11 l 3,2 c 1.625,-1.934 5.4453,-1.219 7,-1"
         style="fill:#ff409f;fill-opacity:1;fill-rule:nonzero;stroke:none"
         id="path5899" /><path
         d="m 43.25,512.25 c -2.9844,-4.57 -10.3828,-7.437 -11,-12 l -5,-3 c 5.6172,4.223 7.2891,14.008 16,15"
         style="fill:#ff409f;fill-opacity:1;fill-rule:nonzero;stroke:none"
         id="path5901" /><path
         d="m 150.25,479.25 0,1 9,6 c -2.305,-1.242 -4.687,-6.496 -9,-7"
         style="fill:#ff409f;fill-opacity:1;fill-rule:nonzero;stroke:none"
         id="path5903" /><path
         d="m 287.25,485.25 c 0.219,-1.199 -1.215,-4.539 2,-5 l -2,-5 c -0.02,3.551 -1.453,7.371 -1,10 l 1,0"
         style="fill:#ff409f;fill-opacity:1;fill-rule:nonzero;stroke:none"
         id="path5905" /><path
         d="m 140.25,466.25 0,0 c 1.664,4.199 5.723,7.777 9,11 -1.609,-4.176 -7.098,-7.039 -9,-11"
         style="fill:#ff409f;fill-opacity:1;fill-rule:nonzero;stroke:none"
         id="path5907" /><path
         d="m 117.25,445.25 -2,2 c 3.043,1.957 3.758,6.016 8,7 -1.379,-2.895 -4.004,-5.996 -6,-9"
         style="fill:#ff409f;fill-opacity:1;fill-rule:nonzero;stroke:none"
         id="path5909" /><path
         d="m 117.25,438.25 2,0 8,11 -8,-15 -2,4"
         style="fill:#ff409f;fill-opacity:1;fill-rule:nonzero;stroke:none"
         id="path5911" /><path
         d="m 110.25,442.25 c -0.547,-7.363 1.359,-15 1,-23 -3.695,5.852 -5.367,16.832 -1,23"
         style="fill:#ff409f;fill-opacity:1;fill-rule:nonzero;stroke:none"
         id="path5913" /><path
         d="m 114.25,427.25 0,5 0,-5"
         style="fill:#ff409f;fill-opacity:1;fill-rule:nonzero;stroke:none"
         id="path5915" /><path
         d="m 137.25,424.25 1,8 -1,-8 0,0"
         style="fill:#ff409f;fill-opacity:1;fill-rule:nonzero;stroke:none"
         id="path5917" /><path
         d="m 117.25,417.25 c -1.582,0.457 -2.539,4.75 -2,7 l 2,-7"
         style="fill:#ff409f;fill-opacity:1;fill-rule:nonzero;stroke:none"
         id="path5919" /><path
         d="m 293.25,381.25 0,9 1,0 -1,-9"
         style="fill:#ff409f;fill-opacity:1;fill-rule:nonzero;stroke:none"
         id="path5921" /><path
         d="m 294.25,362.25 c -0.816,2.234 1.57,7.484 0,10 l 2,2 c -0.906,-3.797 -0.668,-8.094 -2,-12"
         style="fill:#ff409f;fill-opacity:1;fill-rule:nonzero;stroke:none"
         id="path5923" /><path
         d="m 291.25,330.25 c 0.273,-2.039 -2.59,-5.145 -1,-7 l 0,7 1,0"
         style="fill:#ff409f;fill-opacity:1;fill-rule:nonzero;stroke:none"
         id="path5925" /><path
         d="m 182.25,327.25 2,-3 -2,3"
         style="fill:#ff409f;fill-opacity:1;fill-rule:nonzero;stroke:none"
         id="path5927" /><path
         d="m 293.25,308.25 0,-3 c -2.203,4.105 -2.918,9.117 -3,14 2.469,-2.258 0.082,-8.461 3,-11"
         style="fill:#ff409f;fill-opacity:1;fill-rule:nonzero;stroke:none"
         id="path5929" /><path
         d="m 203.25,302.25 c -1.445,1.617 -4.785,5.672 -6,9 3.363,-1.895 5.512,-5.473 6,-9"
         style="fill:#ff409f;fill-opacity:1;fill-rule:nonzero;stroke:none"
         id="path5931" /><path
         d="m 296.25,292.25 -3,8 c 2.809,-1.633 2.332,-5.453 3,-8"
         style="fill:#ff409f;fill-opacity:1;fill-rule:nonzero;stroke:none"
         id="path5933" /><path
         d="m 206.25,296.25 1,0 2,-5 -3,5"
         style="fill:#ff409f;fill-opacity:1;fill-rule:nonzero;stroke:none"
         id="path5935" /><path
         d="m 298.25,280.25 -1,5 c 0.719,-2.148 0.238,-3.34 1,-5"
         style="fill:#ff409f;fill-opacity:1;fill-rule:nonzero;stroke:none"
         id="path5937" /><path
         d="m 303.25,234.25 1,-17 c -1.035,2.609 -0.078,5.949 -1,9 0.684,4.586 -2.18,9.359 -2,14 -1.137,11.59 -2.09,24 -4,36 l 1,1 c 5.922,-14.195 1.387,-29.23 5,-43"
         style="fill:#ff409f;fill-opacity:1;fill-rule:nonzero;stroke:none"
         id="path5939" /><path
         d="m 238.25,220.25 0,-4 0,4"
         style="fill:#ff409f;fill-opacity:1;fill-rule:nonzero;stroke:none"
         id="path5941" /><path
         d="m 264.25,194.25 c -0.406,5.086 -2.789,9.383 -2,14 2.313,-3.664 2.551,-9.152 2,-14"
         style="fill:#ff409f;fill-opacity:1;fill-rule:nonzero;stroke:none"
         id="path5943" /><path
         d="m 249.25,181.25 c -1.629,-7.449 -3.301,-14.371 -6,-22 -1.836,0.945 -3.504,0.469 -4,-1 -2.844,-0.203 -4.992,-1.633 -7,-2 6.301,4.902 11.789,12.059 13,20 l 3,7 1,-2"
         style="fill:#ff409f;fill-opacity:1;fill-rule:nonzero;stroke:none"
         id="path5945" /><path
         d="m 321.25,109.25 c 2.012,-2.273 2.25,-6.57 4,-8 l -1,1 c -0.273,-1.004 -0.273,-2.4336 0,-4 l 1,2 4,-18 c -1.695,-0.332 -0.5,-2.2422 -1,-3 -0.219,-0.1953 -0.695,-0.1953 -1,-1 l -1,6 -2,-1 c -0.75,3.918 -2.898,7.7344 -3,12 3.68,-0.4453 1.055,3.6133 1,6 -4,5.965 -2.09,14.555 -5,21 0.285,2.625 -3.535,5.965 0,7 0.762,5.172 -2.102,11.137 -3,16 1.375,0.387 1.375,1.582 2,3 -1.102,5.262 -3.25,10.273 -4,16 l 2,1 c 4.953,-17.703 5.191,-37.512 7,-56"
         style="fill:#ff409f;fill-opacity:1;fill-rule:nonzero;stroke:none"
         id="path5947" /><path
         d="m 324.25,106.25 c -2.184,5.738 -2.422,11.941 -2,18 0.293,-5.582 2.68,-12.98 2,-18"
         style="fill:#ff409f;fill-opacity:1;fill-rule:nonzero;stroke:none"
         id="path5949" /><path
         d="m 317.25,108.25 -1,0 0,4 c 1.047,-0.5 1.047,-2.172 1,-4"
         style="fill:#ff409f;fill-opacity:1;fill-rule:nonzero;stroke:none"
         id="path5951" /><path
         d="m 319.25,95.25 c -0.523,0.0313 -1.238,-0.4453 -2,0 l -1,10 3,-10"
         style="fill:#ff409f;fill-opacity:1;fill-rule:nonzero;stroke:none"
         id="path5953" /><path
         d="m 324.25,76.25 2,1 c 0.352,-4.4023 1.066,-9.1758 1,-13 -3.988,2.8711 -4.227,10.2695 -5,16 0.293,-1.4375 0.055,-3.582 2,-4"
         style="fill:#ff409f;fill-opacity:1;fill-rule:nonzero;stroke:none"
         id="path5955" /><path
         d="m 337.25,50.25 c -5.16,7.3242 -8.5,15.9141 -9,25 4.555,-7.1758 5.746,-16.4844 9,-25"
         style="fill:#ff409f;fill-opacity:1;fill-rule:nonzero;stroke:none"
         id="path5957" /><path
         d="m 377.25,56.25 c -3.402,-0.5859 -7.937,-0.5859 -12,0 0.484,0.6094 0.246,0.8477 0,1 -1.902,0.5625 0.008,-3.2539 -2,-4 -4.199,3.1289 -8.73,4.8008 -13,8 8.563,2.7656 16.438,-0.8125 24,3 l 3,-8"
         style="fill:#ff409f;fill-opacity:1;fill-rule:nonzero;stroke:none"
         id="path5959" /><path
         d="m 347.25,57.25 c -1.797,0.3242 -2.992,3.4258 -5,2 -2.285,-1.9141 0.816,-3.1094 0,-5 -1.332,-0.2539 -2.523,1.1758 -3,2 l 2,5 5,0 1,-4"
         style="fill:#ff409f;fill-opacity:1;fill-rule:nonzero;stroke:none"
         id="path5961" /><path
         d="m 329.25,52.25 c 0.215,2.4609 -2.648,4.8477 -1,7 2.168,-1.9141 -0.219,-4.5391 1,-7"
         style="fill:#ff409f;fill-opacity:1;fill-rule:nonzero;stroke:none"
         id="path5963" /><path
         d="m 319.25,54.25 c -1.238,0.6992 0.191,2.3711 0,4 -0.047,-1.1523 0.91,-2.8242 0,-4"
         style="fill:#ff409f;fill-opacity:1;fill-rule:nonzero;stroke:none"
         id="path5965" /><path
         d="m 353.25,52.25 c 7.949,-4.6992 18.449,-4.6992 27,-10 -10.223,0.7656 -19.289,5.3008 -28,5 l -5,4 -1,-1 -1,4 c 2.109,-1.6875 4.973,-3.1211 8,-2"
         style="fill:#ff409f;fill-opacity:1;fill-rule:nonzero;stroke:none"
         id="path5967" /><path
         d="m 339.25,43.25 c -0.48,-0.9492 -3.344,-1.4258 -3,-3 -2.012,3.0039 -2.969,6.1055 -4,10 l 0,3 c 1.746,-4.2695 5.09,-6.1758 7,-10"
         style="fill:#ff409f;fill-opacity:1;fill-rule:nonzero;stroke:none"
         id="path5969" /><path
         d="m 378.25,51.25 c -1.301,3.2227 -3.926,-0.8359 -6,1 1.359,0.0742 5.414,1.9844 6,-1"
         style="fill:#ff409f;fill-opacity:1;fill-rule:nonzero;stroke:none"
         id="path5971" /><path
         d="m 346.25,49.25 0,-1 c -1.035,-0.4609 -0.797,-2.3711 0,-3 l 7,-7 c -3.98,3.332 -9.23,3.0938 -12,8 l -2,6 c 2.145,-1.1211 4.055,-4.6992 7,-3"
         style="fill:#ff409f;fill-opacity:1;fill-rule:nonzero;stroke:none"
         id="path5973" /><path
         d="m 326.25,42.25 c -3.227,1.2422 -2.035,6.4922 -3,10 1.68,-3.5078 4.543,-7.0859 3,-10"
         style="fill:#ff409f;fill-opacity:1;fill-rule:nonzero;stroke:none"
         id="path5975" /><path
         d="m 417.25,45.25 c -3.316,0.1523 -5.465,7.0742 -8,3 l 3,-4 c -3.805,0.6758 -5.953,3.5391 -9,5 4.48,0.6875 8.059,-0.5078 13,0 l 1,-4"
         style="fill:#ff409f;fill-opacity:1;fill-rule:nonzero;stroke:none"
         id="path5977" /><path
         d="m 431.25,48.25 -2,-3 c -2.191,1.5859 -5.535,2.3008 -9,4 3.707,-0.5078 8.477,1.4023 11,-1"
         style="fill:#ff409f;fill-opacity:1;fill-rule:nonzero;stroke:none"
         id="path5979" /><path
         d="m 321.25,43.25 c -0.852,-0.2344 -2.523,1.9141 -3,0 l 0,-3 c 0.238,0.1406 0,0.1406 0,0 l -2,-1 c 0.805,-0.5312 1.047,-1.0078 1,-1 l -4,1 1,2 2,-1 c -2.773,2.5273 1.285,5.8672 2,9 0.715,-1.9375 2.148,-3.8477 3,-6"
         style="fill:#ff409f;fill-opacity:1;fill-rule:nonzero;stroke:none"
         id="path5981" /><path
         d="m 331.25,42.25 c -1.785,1.9609 -2.5,3.1523 -1,6 l 1,-6"
         style="fill:#ff409f;fill-opacity:1;fill-rule:nonzero;stroke:none"
         id="path5983" /><path
         d="m 372.25,41.25 c -1.266,-2.293 -3.652,0.0938 -4,-2 -2.516,0.4258 -4.187,3.7656 -7,3 l -2,2 13,-3"
         style="fill:#ff409f;fill-opacity:1;fill-rule:nonzero;stroke:none"
         id="path5985" /><path
         d="m 428.25,43.25 c -1.91,-0.7109 -5.012,-4.0508 -8,-4 l -1,2 c 1.363,-1.0977 3.512,0.8125 4,2 1.422,0.7188 2.613,-0.9492 5,0"
         style="fill:#ff409f;fill-opacity:1;fill-rule:nonzero;stroke:none"
         id="path5987" /><path
         d="m 416.25,38.25 c -2.316,-0.2461 -5.418,-3.3477 -8,0 -3.621,-2.1562 -6.723,2.6172 -10,0 -0.543,1.4258 -4.359,-2.1562 -3,1 l -1,1 c 1.309,-0.3359 3.934,-1.7695 6,-1 1.277,4.4805 6.523,-2.4375 7,3 l 9,-4"
         style="fill:#ff409f;fill-opacity:1;fill-rule:nonzero;stroke:none"
         id="path5989" /><path
         d="m 342.25,41.25 c 0.578,-0.6211 0.098,-2.7695 2,-3 -2.617,0.2305 -3.094,1.9023 -5,4 0.715,-2.3359 2.621,-1.1445 3,-1"
         style="fill:#ff409f;fill-opacity:1;fill-rule:nonzero;stroke:none"
         id="path5991" /><path
         d="m 387.25,38.25 5,0 -5,0"
         style="fill:#ff409f;fill-opacity:1;fill-rule:nonzero;stroke:none"
         id="path5993" /><path
         d="m 341.25,32.25 c -1.766,0.5039 -4.867,1.2188 -4,3 1.281,-0.3477 2.715,-2.0195 4,-3"
         style="fill:#ff409f;fill-opacity:1;fill-rule:nonzero;stroke:none"
         id="path5995" /><path
         d="m 351.25,27.25 -6,6 4,-2 2,-4"
         style="fill:#ff409f;fill-opacity:1;fill-rule:nonzero;stroke:none"
         id="path5997" /><path
         d="m 383.25,29.25 c -1.051,0.6406 -4.395,2.3086 -4,4 1.754,-0.2578 2.23,-3.1211 4,-4"
         style="fill:#ff409f;fill-opacity:1;fill-rule:nonzero;stroke:none"
         id="path5999" /><path
         d="m 378.25,27.25 c 0,0 -3.687,1.4453 -2,3 l 2,-3"
         style="fill:#ff409f;fill-opacity:1;fill-rule:nonzero;stroke:none"
         id="path6001" /><path
         d="m 398.25,27.25 c -3.645,-5.4727 -7.223,-11.6797 -5,-19 l -1,0 c -2.895,3.9805 -5.996,8.9922 -10,12 -2.676,-1.8164 1.617,-4.6797 1,-7 l -6,9 c 1.605,3.582 5.188,-3.3398 6,1 l -1,3 c 1.855,-0.8945 4.242,-3.2812 7,-3 l 0,3 c 1.063,-0.6562 2.254,-1.1328 3,-1 2.594,0.8203 1.641,3.207 1,4 l 5,-2"
         style="fill:#ff409f;fill-opacity:1;fill-rule:nonzero;stroke:none"
         id="path6003" /><path
         d="m 373.25,19.25 2,2 2,-6 -4,4"
         style="fill:#ff409f;fill-opacity:1;fill-rule:nonzero;stroke:none"
         id="path6005" /></g></g></svg>