<?xml version="1.0"?><svg width="640" height="480" xmlns="http://www.w3.org/2000/svg">
 <title>hibiscus pink</title>
 <metadata id="metadata3512">image/svg+xml</metadata>
 <g>
  <title>Layer 1</title>
  <path id="path3466" fill="#ff0080" d="m-26.0804,403.487c15.4258,-5.787994 33.725241,3.263 42.4132,20.97699c7.2917,14.869019 6.6157,30.526001 -3.2232,74.663025c-6.23285,27.959961 -8.21895,42.593994 -8.71555,64.21698c-0.438,19.067993 -1.1269,24.887024 -2.1587,18.234009c-2.9778,-19.203979 -1.1219,-43.161987 6.6169,-85.424988c4.90205,-26.771027 7.34085,-46.216003 6.48715,-51.720001c-3.3801,-21.794006 -18.48705,-37.808014 -35.9614,-38.119019c-10.1292,-0.179993 -11.129601,-0.697998 -5.458401,-2.826996zm29.793951,-66.117004c0.6106,-1.664001 2.583,-3 4.3833,-2.96698c1.938749,0.033997 2.69385,1.536987 1.8519,3.686981c-2.3392,5.972015 2.458549,4.196014 9.99195,-3.699982c24.6381,-25.823029 64.026096,-19.971008 81.137302,12.053986c5.781998,10.820007 6.842995,15.523987 6.628998,29.382996c-0.249001,16.130005 -7.014999,40.873993 -12.706299,46.468018c-1.416,1.392975 -0.124001,-2.904999 2.870995,-9.551025c7.638306,-16.946991 8.365303,-44.720001 1.531006,-58.442993c-22.795906,-45.774994 -80.038702,-39.380005 -88.504003,9.888l-2.209249,12.859009l0.895499,-13.994019c0.49275,-7.694 0.048201,-14.006989 -0.987599,-14.024994c-2.7738,-0.049988 -6.1691,-8.156006 -4.8837,-11.658997l-0.0001,0zm12.23775,48.070007c2.2276,1.825012 5.6695,2.709991 7.6485,1.96701c4.0653,-1.525024 5.0662,-8.786011 1.2208,-8.854004c-1.376301,-0.024994 -1.8267,-1.128998 -1.001101,-2.45401c2.5937,-4.162994 10.3983,-2.467987 13.036701,2.832001c1.967499,3.951996 1.670799,6.381989 -1.336601,10.938995c-5.0467,7.647003 -11.0474,7.307007 -18.0016,-1.019989c-3.089499,-3.699005 -3.794499,-5.233002 -1.5667,-3.410004zm14.5345,95.536987c6.6705,-19.311005 12.187601,-36.971985 12.260099,-39.246979c0.1544,-4.834015 14.356602,-16.313019 20.056801,-16.210999c8.378002,0.14798 2.902798,18.875 -10.6782,36.520996c-5.5252,7.178986 -15.5047,23.742981 -22.176701,36.809998c-6.6717,13.066986 -12.0089,22.290009 -11.8603,20.496002c0.1485,-1.79303 5.7278,-19.059021 12.3983,-38.369019zm-8.3062,72.989014c13.750599,-50.55899 38.628201,-83.056 92.944401,-121.411011c78.555992,-55.471985 109.999001,-87.319 121.405006,-122.964996c6.556992,-20.493988 7.003998,-45.984009 1.026993,-58.593994c-11.809998,-24.917007 -43.179993,-35.257004 -63.451996,-20.916c-8.041,5.688995 -11.815002,15.563004 -8.266006,21.632004c2.675003,4.576996 12.261002,6.878998 12.759003,3.065994c0.186005,-1.429993 0.623001,-3.692001 0.970001,-5.024994c0.347992,-1.334 0.774002,-3.009003 0.949005,-3.723999c0.173996,-0.713013 2.423996,-0.087006 4.998993,1.393997c3.065002,1.761993 4.639999,5.182999 4.561005,9.911987c-0.264999,15.779999 -18.761002,22.265015 -29.827011,10.455994c-6.893997,-7.356995 -7.059998,-13.271988 -0.718994,-25.555984c5.660004,-10.964005 18.084,-19.283997 31.138,-20.852997c8.238998,-0.990005 9.061005,-1.658005 7.035995,-5.723999c-4.388992,-8.81601 6.026001,-18.964005 15.443008,-15.044998c5.759003,2.396988 5.03299,9.502991 -0.969009,9.475998c-1.927994,-0.009003 -3.858994,1.69899 -4.291,3.794998c-0.503998,2.446991 3.358002,6.231995 10.790009,10.574997c6.367004,3.718994 14.753998,10.628998 18.640991,15.354004c7.711014,9.373993 14.018005,28.962997 13.785004,42.815994c-0.213989,12.798004 -6.884995,35.528015 -14.496002,49.39801c-12.71199,23.166992 -57.327988,62.938995 -109.693993,97.78598c-33.046204,21.990997 -48.497299,34.744019 -62.638901,51.699005c-24.5359,29.416992 -40.639301,67.48703 -43.501902,102.844025c-0.866301,10.69696 -1.004299,16.170959 -0.307199,12.164001c5.895,-33.879028 20.245899,-65.30304 39.067299,-85.545013c37.871403,-40.727997 84.914707,-54.889008 199.383686,-60.011993c90.585022,-4.056 137.892029,-13.15802 182.580017,-35.130005c34.669006,-17.045013 69.151001,-47.779022 88.925995,-79.26001c10.366028,-16.501984 17.723999,-25.320007 19.523987,-23.398987c4.16803,4.445984 -27.427979,48.385986 -50.982971,70.901001c-29.937012,28.617981 -62.875,45.789001 -111.509003,58.132996c-32.170013,8.164001 -59.675018,11.600006 -127.583008,15.932983c-87.697006,5.595001 -119.833008,11.738007 -155.136002,29.657013c-46.797199,23.748993 -78.269402,74.754974 -79.9107,129.508026c-0.425301,14.186951 0.565498,20.727966 4.440599,29.313965c3.877098,8.590027 4.673698,9.41803 3.575901,3.718018c-0.776703,-4.033997 -1.252501,-16.650024 -1.057402,-28.036011c0.561701,-32.77301 10.785601,-57.385986 34.000902,-81.853027c11.572395,-12.195984 24.4944,-21.127991 26.882401,-18.580994c0.609001,0.650024 -3.602005,4.400024 -9.358002,8.334045c-21.348301,14.584961 -35.66,35.294983 -44.319099,64.127991c-3.273903,10.901978 -4.136402,20.415955 -3.671101,40.492004c0.5578,24.057983 1.161499,27.093994 7.258801,36.501953c9.241501,14.27002 27.442398,30.700012 44.602402,40.27002c7.968994,4.450012 14.1203,8.450012 13.669296,8.900024c-1.192299,1.190002 -19.664299,-9.190002 -30.547302,-17.160034c-12.154198,-8.899963 -30.229496,-28.849976 -36.935497,-40.763977c-3.076899,-5.46698 -5.7407,-8.078003 -6.368599,-6.244019c-2.195301,6.41803 -10.655901,-48.244995 -10.2099,-65.961975c0.253,-10.046021 2.679298,-26.424988 5.3918,-36.39801l0,0l0.000099,0zm13.6035,-422.119003c7.245499,-6.528999 12.422901,-5.021004 10.701801,3.115997c-1.102001,5.210007 -0.441402,7.359009 2.659698,8.650009c3.135201,1.304001 9.663101,-4.021011 27.189102,-22.180008c12.683998,-13.142998 29.159294,-27.6623 36.609299,-32.265297c54.982002,-33.968002 121.971001,-25.475002 168.132988,21.3153c19.790009,20.059006 31.371002,41.447998 37.982025,70.151993c10.502991,45.600998 -1.216003,106.192001 -28.613007,147.940994c-17.692017,26.960999 -53.902008,57.734009 -87.951004,74.748016c-16.247009,8.118988 -15.089005,5.619995 1.671997,-3.608002c60.643997,-33.389008 91.780991,-71.130005 106.270004,-128.809998c15.699982,-62.49501 5.968994,-110.026001 -30.420013,-148.592003c-28.979996,-30.713303 -60.120987,-44.846306 -100.253998,-45.499306c-62.895996,-1.022995 -120.102093,47.084305 -134.213093,112.865295c-5.237,24.41301 -3.645599,47.679001 3.9016,57.047012c7.094398,8.804993 14.257801,6.505997 12.4053,-3.981003c-1.154999,-6.539001 -0.676899,-7.283997 4.610096,-7.190002c12.132904,0.216003 13.407906,20.712006 1.759102,28.286987c-7.925297,5.152008 -16.7509,2.424011 -21.042599,-6.504974c-5.036999,-10.481018 -8.420498,-40.672012 -6.370201,-56.843018c1.635101,-12.899002 5.602402,-28.019989 10.208702,-38.910995c1.432899,-3.388 0.579998,-4.251999 -4.278301,-4.339005c-7.240898,-0.128998 -15.5592,-8.854996 -15.4361,-16.192001c0.048401,-2.889999 2.062901,-7.031998 4.476601,-9.205994l0,0l0,0l0,0zm5.760399,470.478989c0.9641,-0.958984 3.3829,-1.716003 5.375702,-1.679993c2.6595,0.046021 2.9119,0.772034 0.948898,2.726013c-1.470699,1.464966 -3.889698,2.221008 -5.375599,1.682007c-1.486,-0.541016 -1.913101,-1.768005 -0.949001,-2.728027zm0.617901,18.942993c1.3134,-0.804993 2.369701,-0.367004 2.347099,0.973022c-0.0224,1.338989 -1.115299,3.093018 -2.428699,3.89801c-1.313499,0.803955 -2.369801,0.365967 -2.347401,-0.973022c0.022602,-1.338989 1.115501,-3.093994 2.429001,-3.89801zm7.7215,-37.625c2.599201,0.046997 4.709099,1.064026 4.689098,2.259033c-0.045898,2.737976 -6.234699,5.182007 -8.094898,3.19696c-2.794899,-2.981995 -1.199699,-5.537964 3.4058,-5.455994zm7.3335,-14.485962c2.599201,0.045959 4.709301,1.061951 4.689201,2.258972c-0.046001,2.738037 -6.234901,5.182007 -8.094902,3.197021c-2.794998,-2.983032 -1.199699,-5.539001 3.405701,-5.455994zm13.108398,-112.193024c4.952904,-4.673004 24.612999,-20.167999 43.689201,-34.432007c19.075005,-14.265991 46.542,-37.237 61.036003,-51.048981c14.671997,-13.980011 22.83699,-20.601013 18.421997,-14.934998c-11.998001,15.388 -38.684006,38.882996 -75.903999,66.829987c-18.432304,13.838013 -38.646202,30.074005 -44.922203,36.07901c-6.274895,6.005981 -11.390697,9.813995 -11.368198,8.460999c0.0228,-1.35202 4.093899,-6.282013 9.047199,-10.95401zm-8.992599,99.313019c2.3978,-2.387024 10.312599,-1.853027 10.2696,0.69397c-0.053001,3.182007 -7.635098,5.505005 -9.939499,3.046021c-1.0849,-1.15802 -1.233501,-2.840027 -0.330101,-3.73999zm15.040504,-14.660034c2.662094,-1.630981 9.650093,1.05304 9.606094,3.690002c-0.043999,2.635986 -7.118095,5.069031 -9.723999,3.345032c-1.169098,-0.775024 -2.110001,-2.374023 -2.090096,-3.554993c0.020096,-1.183044 1.014,-2.748047 2.208,-3.480042zm14.254997,-11.847961c3.358002,-2.058044 10.1203,1.320007 9.029099,4.508972c-1.226997,3.585022 -9.352097,3.380005 -10.462097,-0.263c-0.475899,-1.560974 0.168999,-3.471008 1.432999,-4.245972zm41.445297,-79.732025c11.360001,-5.061981 33.615997,-15.346985 49.459,-22.855988c15.841995,-7.507996 30.016006,-13.630005 31.496002,-13.605011c5.966995,0.106995 21.557007,8.43399 21.505005,11.487c-0.119003,7.132996 -15.167999,14.757996 -31.832001,16.127991c-18.249008,1.502014 -37.939011,5.514008 -68.706009,14.001007c-11.523994,3.179016 -21.317993,5.390015 -21.764992,4.914001c-0.446007,-0.475983 8.482994,-5.006989 19.842995,-10.069zm-15.415001,159.290985c6.017006,-4.968994 18.525002,-1.795959 22.417,5.684998c3.171005,6.097046 3.110001,7.070007 -0.675995,10.840027c-3.945007,3.927979 -4.324005,3.903992 -7.309006,-0.461975c-4.098999,-5.992004 -10.942993,-3.497009 -11.068993,4.036987c-0.285004,16.97699 29.574989,30.734985 57.896004,26.677002c33.565994,-4.811035 56.419998,-31.618042 56.843994,-66.674011c0.511002,-42.320007 -27.733002,-76.379028 -70.714005,-85.272003c-9.376999,-1.940002 -14.849991,-3.606018 -12.162994,-3.703003c2.688004,-0.097015 11.175995,1.126007 18.862991,2.718994c62.874008,13.029999 91.374008,93.600006 48.819,138.011993c-4.896988,5.109985 -15.600998,12.330017 -23.787994,16.044983c-13.804993,6.265015 -20.042999,13.921021 -11.462997,14.071045c1.949997,0.039978 3.51799,1.649963 3.485992,3.579956c-0.167999,10 -16.14299,6.780029 -17.980988,-3.629944c-1.112015,-6.295044 -2.60701,-7.30304 -14.862015,-10.015015c-22.982986,-5.088013 -42.12899,-24.049011 -41.856995,-41.454041c0.065002,-4.188965 1.666,-8.893982 3.556999,-10.455994zm25.381996,-106.681976c2.493011,-0.062012 3.878006,0.539001 3.07901,1.333008c-0.798996,0.79599 -2.837997,0.845978 -4.531998,0.112976c-1.872009,-0.810974 -1.302002,-1.378998 1.452988,-1.445984zm14.725006,-130.878998c1.753006,-4.776001 5.449997,-3.450012 5.361008,1.923004c-0.045013,2.678986 -1.083008,4.852997 -2.305008,4.830994c-3.024994,-0.054016 -4.399002,-3.093018 -3.056,-6.753998zm19.317001,116.984985c13.505005,-0.003998 21.013992,1.559021 35.972992,7.490997c22.462006,8.906006 50.248016,27.977997 56.324005,38.659027c4.649994,8.174988 5.490997,22.382996 1.677002,28.302002c-3.859009,5.987 -13.937988,-1.950989 -22.546997,-17.759033c-15.128998,-27.779968 -45.470001,-50.130981 -73.945007,-54.471985l-14.549988,-2.217987l17.067993,-0.003021zm75.559006,43.671021c3.834,3.919006 6.981003,6.578003 6.991989,5.908997c0.011017,-0.669983 -3.116989,-4.424988 -6.950989,-8.343994c-3.834,-3.921021 -6.980011,-6.580017 -6.991013,-5.908997c-0.011993,0.669006 3.116013,4.424988 6.950012,8.343994zm-79.923004,-176.730011c1.222992,-0.748993 2.903,-0.183014 3.733994,1.256989c2.100998,3.644012 -0.843002,10.295013 -3.716003,8.39502c-2.955994,-1.957001 -2.966995,-7.845001 -0.01799,-9.652008zm13.265991,-17.970001c2.709,-2.237 3.685013,-1.792999 4.84201,2.203003c1.722992,5.949005 -0.279999,9.889984 -4.984009,9.806c-4.378998,-0.078003 -4.280991,-8.356995 0.141998,-12.009003zm29.705002,143.153992c47.234009,4.278015 85.971008,17.003021 129.147003,42.424988c31.028992,18.269043 46.248993,23.387024 52.993011,17.817017c5.609985,-4.632019 4.737976,-10.333984 -1.296997,-8.47699c-5.903015,1.815979 -5.242004,-3.205994 0.931976,-7.069031c5.485016,-3.430969 11.664001,2.712036 10.63501,10.572998c-1.618011,12.370056 -22.524994,15.25 -40.040985,5.514038c-6.317017,-3.512024 -5.565002,-1.963989 6.251984,12.860962c9.881989,12.397034 14.777008,16.705017 18.511993,16.294006c2.792999,-0.307007 6.317017,1.03302 7.82901,2.980042c2.209991,2.842957 1.811005,3.828003 -2.026001,5.007996c-4.533997,1.394958 -4.596008,1.878967 -1.231995,9.487c2.363007,5.34198 5.161987,7.989014 8.391998,7.934998c2.665009,-0.044006 5.285004,1.296997 5.821991,2.980957c0.536011,1.685059 -0.820984,3.032043 -3.018982,2.993042c-2.876007,-0.052002 -3.537018,1.128967 -2.362,4.221008c0.896973,2.360962 2.118988,6.157959 2.714996,8.437988c0.596985,2.279968 3.280975,4.520996 5.963989,4.979004c5.946991,1.015991 8.312012,6.984985 2.72699,6.88501c-2.671997,-0.048035 -3.540985,1.212952 -2.625,3.807007c0.753998,2.132996 1.344025,5.432983 1.312012,7.33197c-0.032013,1.900024 0.740997,3.338013 1.718994,3.197998c4.343994,-0.628967 7.671021,0.617981 7.634003,2.859985c-0.02301,1.340027 -1.635986,2.407043 -3.585999,2.373047c-4.484009,-0.080017 -4.549988,4.100952 -0.20401,13.064941c4.371002,9.017029 4.244019,16.246033 -0.28598,16.156006c-1.949005,-0.029968 -3.606018,-1.429993 -3.680023,-3.109985c-1.457977,-32.424011 -1.879974,-34.200012 -7.623993,-32.044983c-4.119995,1.546021 -4.365997,-0.247986 -0.91098,-6.63501c3.237976,-5.986023 -0.744019,-14.890991 -5.809998,-12.991028c-3.944,1.480042 -4.917999,-5.289001 -1.09903,-7.628967c1.390015,-0.851013 0.808014,-4.799988 -1.463989,-9.937988c-2.537994,-5.741028 -4.562988,-7.737 -6.197998,-6.109009c-4.660004,4.640991 -6.721985,2.278992 -5.102997,-5.84198c1.45401,-7.288025 0.240997,-10.084045 -11.072998,-25.531006c-12.375,-16.897034 -31.414001,-34.171997 -51.722992,-46.93103c-21.64502,-13.598999 -54.384003,-23.983978 -115.96701,-36.785004c-12.684998,-2.636993 -12.585999,-2.659973 4.744995,-1.089996zm12.234009,-419.230289c48.744995,6.284 94.066986,52.317295 107.561981,109.250294c8.307007,35.05101 5.382019,77.264008 -8.092987,116.797012c-7.60199,22.302979 -24.115997,53.710999 -31.950989,60.769989c-2.410004,2.170013 0.557983,-3.518005 6.59198,-12.640991c21.399017,-32.351013 33.492004,-72.822998 34.352997,-114.966003c0.646027,-31.665009 -3.655975,-53.029007 -16.181976,-80.359009c-17.003998,-37.10099 -47.08902,-63.312294 -86.207016,-75.106293c-14.682999,-4.427002 -15.560989,-4.969002 -6.07399,-3.744999zm30.213989,-15.158001c3.798004,0.068001 7.806,7.332001 6.244995,11.317001c-1.247986,3.186996 -2.197998,3.350998 -5.005981,0.862c-3.735001,-3.310001 -4.644012,-12.240002 -1.239014,-12.179001l0,0zm27.531006,420.039291c28.428986,-0.179993 76.048004,-5.205994 104.492004,-11.028992c59.973999,-12.279999 113.773987,-39.79599 141.384003,-72.312988c5.270996,-6.209015 11.888977,-13.987 14.705017,-17.287018c2.816956,-3.299988 0.432007,0.881012 -5.298035,9.289001c-27.429016,40.244995 -79.266998,70.181 -145.268982,83.891998c-34.630005,7.194 -74.796997,10.542999 -106.507019,8.882019l-24.794983,-1.299011l21.287994,-0.13501zm-1.57901,-404.959293c3.826996,0.068001 7.753998,10.086002 5.02002,12.807003c-1.32901,1.323997 -3.559998,1.650002 -4.958008,0.723999c-3.143005,-2.080002 -3.195007,-13.587002 -0.062012,-13.531002zm8.163025,363.810307c5.847992,0.104004 8.232971,0.622009 5.298981,1.149994c-2.93399,0.528015 -7.718994,0.444 -10.632996,-0.188995c-2.912994,-0.632996 -0.513,-1.065002 5.334015,-0.960999zm60.444,60.059998c58.319,1.574005 74.112976,2.785004 96.779999,7.417999c63.927002,13.069 103.917969,35.201996 124.705994,69.017975c24.906006,40.515015 23.602966,87.480042 -3.057007,110.188049c-16.583008,14.129944 -30.015991,12.789978 -34.922974,-3.470032c-4.645996,-15.398987 11.596985,-31.77301 21.273987,-21.447998c3.46698,3.700012 3.424011,4.259033 -0.544006,7.143005c-5.817993,4.22699 -4.500977,14.794983 1.976013,15.86499c13.620972,2.26001 27.393982,-20.953003 27.828979,-46.896973c1.059021,-63.125 -50.721008,-108.532043 -143.86499,-126.160034c-34.824005,-6.589996 -46.973022,-7.840973 -104.372009,-10.737976l-55.496002,-2.800995l69.692017,1.881989zm-47.202026,-403.470299c1.723999,0.619995 3.447998,3.634995 3.831024,6.700996c0.472992,3.788002 -0.309021,5.213997 -2.438019,4.446999c-1.725006,-0.618996 -3.447998,-3.635002 -3.830994,-6.700996c-0.472992,-3.787003 0.308014,-5.213005 2.437988,-4.446999zm13.203003,21.9133c1.708008,-2.676003 2.632996,-2.326004 4.667999,1.761993c2.675018,5.374001 -0.177002,9.406006 -4.586975,6.486c-2.850006,-1.884995 -2.869019,-3.878998 -0.081024,-8.247993zm9.733002,319.48101c27.382019,-0.853027 72.578003,-16 78.796997,-26.409027c1.926025,-3.222992 1.375,-5.386993 -2.395996,-9.409973l-4.895996,-5.223999l-5.227997,5.585999c-4.424988,4.72998 -5.55899,5.024994 -7.386993,1.927002c-5.748016,-9.739014 2.493988,-21.84903 14.720001,-21.631012c8.438995,0.149994 18.638,9.734009 18.509979,17.393005c-0.178986,10.627991 -7.47998,19.644989 -20.748993,25.621979c-16.428986,7.403015 -55.208984,14.949005 -69.460999,13.516998c-10.057007,-1.009979 -10.200989,-1.112 -1.910004,-1.370972zm3.484009,-295.976013c3.048004,-3.034004 5.540985,-1.505997 5.458984,3.345993c-0.044983,2.707001 -1.655975,4.843002 -3.625,4.808014c-3.597992,-0.064011 -4.759979,-5.239014 -1.833984,-8.154007zm9.673004,24.233994c1.222992,-0.75 2.872009,-0.237 3.665009,1.139008c1.694,2.938004 -0.59201,7.337997 -3.78302,7.281006c-2.875,-0.05101 -2.78299,-6.644012 0.118011,-8.420013zm114.424988,295.501999c1.873016,0.033997 4.044006,1.167999 4.825012,2.52301c0.781006,1.354004 -0.77002,2.421997 -3.446014,2.373993c-2.674988,-0.046997 -4.845978,-1.182007 -4.824005,-2.522003c0.02301,-1.338989 1.573029,-2.40799 3.445007,-2.375zm13.463013,39.412018c2.492981,-0.061005 3.877991,0.539001 3.079987,1.334991c-0.798981,0.79599 -2.837982,0.845001 -4.531982,0.110992c-1.872009,-0.811005 -1.302002,-1.377991 1.451996,-1.445984zm12.72699,-342.609009c7.312012,-8.462006 17.596008,-8.507996 33.19101,-0.149002c36.309021,19.464005 57.33197,62.753998 53.197998,109.546997c-0.935974,10.595993 -3.470032,20.972 -6.515015,26.681992c-5.929993,11.118011 -6.158997,9.301025 -1.273987,-10.079987c12.666016,-50.25 -9.174988,-108.572006 -44.358032,-118.447998c-8.310974,-2.332001 -10.219971,-2.078003 -14.203979,1.889999c-2.53299,2.520004 -4.621002,5.589996 -4.640991,6.819992c-0.092987,5.493011 3.054016,9.998001 7.033997,10.069c5.901001,0.105011 7.645996,3.916 4.476013,9.775009c-1.950012,3.603989 -5.024017,4.832993 -11.796021,4.71199c-18.664001,-0.332001 -28.091003,-25.796997 -15.110992,-40.817993zm-4.661987,296.272003c3.522003,0.062988 5.539001,1.14798 4.684998,2.518982c-0.826019,1.326019 -2.971008,2.384003 -4.765991,2.35202c-1.797028,-0.032013 -3.905029,-1.165009 -4.686005,-2.519012c-0.808014,-1.402008 1.243988,-2.414001 4.766998,-2.35199zm1.345001,48.941986c2.492981,-0.061981 3.878998,0.539001 3.079987,1.334015c-0.798004,0.79599 -2.837982,0.845001 -4.531006,0.110992c-1.871979,-0.811005 -1.302979,-1.377991 1.451019,-1.445007zm7.421997,2.559021c4.399994,-0.239014 34.521973,11.621979 47.958984,18.881989c27.642029,14.939972 52.244995,37.800995 60.212036,55.949005c2.237976,5.098022 1.812988,4.883972 -2.504028,-1.263c-20.890991,-29.737976 -50.27301,-51.588013 -89.01001,-66.192017c-10.559998,-3.97998 -18.054993,-7.299988 -16.656982,-7.375977zm8.075989,-60.946014c3.429016,0.062012 5.395996,1.151001 4.545013,2.518005c-0.826019,1.324005 -3.565002,2.372009 -6.088013,2.326996c-2.522003,-0.044006 -4.567993,-1.178009 -4.544983,-2.516998c0.02298,-1.339996 2.761993,-2.386993 6.087982,-2.328003zm6.872009,-112.756989c0.880981,-0.878021 5.944,-1.529022 11.251007,-1.447021c11.759003,0.180023 31.183014,-8.5 39.915009,-17.837982c9.225952,-9.865997 18.994995,-30.328003 19.159973,-40.128998c0.278992,-16.67601 16.888,-67.341003 22.044983,-67.249008c0.983032,0.016998 4.386047,-7.869995 7.563049,-17.528c14.184998,-43.123001 32.546997,-71.011002 56.768982,-86.219299c8.10199,-5.086998 16.034973,-10.345001 17.627014,-11.682999c4.330994,-3.641998 10.190979,-2.816002 10.120972,1.424995c-0.034973,2.051003 -1.932983,4.262001 -4.218994,4.912003c-23.715027,6.746002 -46.396973,27.189301 -61.073975,55.049294c-10.624023,20.166 -22.221008,51.216003 -20.344055,54.471008c0.753052,1.304993 5.16803,-3.914001 9.813049,-11.598007c17.156006,-28.382996 35.813965,-41.800995 70.218994,-50.498993c9.791016,-2.474998 20.20697,-5.176003 23.144958,-6.000999c4.246033,-1.193001 5.327026,-0.526001 5.264038,3.249001c-0.067017,3.955002 -1.759033,4.727997 -10.122986,4.623001c-15.410034,-0.194 -38.625,7.145996 -54.213013,17.140991c-14.531006,9.318008 -36.843994,35.900009 -40.054016,47.718002c-0.906006,3.333008 -5.255981,9.669006 -9.666016,14.07901c-4.409973,4.409988 -8.039001,9.153 -8.061951,10.538986c-0.02301,1.386002 2.141968,-0.242996 4.812988,-3.620987c6.674988,-8.443008 20.269958,-12.763 52.250977,-16.606003c14.979004,-1.800003 29.638,-3.891006 32.575989,-4.645996c4.65802,-1.198013 5.325012,-0.453003 5.220032,5.839996c-0.069031,4.119003 -2.179016,9.067001 -4.921021,11.537003c-2.638977,2.377991 -4.843994,6.977997 -4.898987,10.222c-0.057007,3.413986 -3.351013,9.097992 -7.819031,13.491989c-4.246948,4.175003 -7.477966,9.39801 -7.179993,11.604004c0.645996,4.783997 -10.467957,14.082993 -16.700012,13.973007c-2.422974,-0.044006 -4.43396,1.544006 -4.46698,3.527985c-0.086975,5.201019 -10.300964,6.886017 -20.179016,3.330017c-4.677002,-1.684021 -9.153992,-2.416016 -9.945984,-1.627014c-0.791992,0.789001 0.21698,1.464996 2.244019,1.501007c8.286011,0.14801 8.417969,14.371002 0.209961,22.544006c-5.005981,4.984985 -8.855957,6.164978 -21.975952,6.73999c-13.157043,0.575989 -19.757996,2.610992 -38.195007,11.772003c-12.259033,6.09201 -25.307983,11.022003 -28.997009,10.957001c-3.690002,-0.06601 -7.384003,0.963989 -8.209991,2.289001c-2.221008,3.565002 -10.683014,2.768005 -10.619019,-1.001007c0.029999,-1.786011 0.774994,-3.964996 1.657013,-4.842987zm82.490967,-33.223999c2.18103,-0.819 3.981018,-2.46701 4.002014,-3.663025c0.041992,-2.546997 -7.872009,-3.08197 -10.269958,-0.694c-2.704041,2.692017 1.996948,5.959015 6.267944,4.357025zm8.404053,6.487c7.908997,-3.213013 11.752991,-11.005005 7.597961,-15.402008c-2.031982,-2.153015 -2.339966,-1.846008 -1.255005,1.251984c1.689026,4.823029 -6.583008,14.07901 -12.487976,13.975006c-2.166016,-0.039978 -3.275024,0.636017 -2.463989,1.501007c0.809998,0.86499 4.68396,0.268005 8.609009,-1.325989zm-2.601013,-42.603012c1.950989,-2.565994 4.891968,-5.511993 6.533997,-6.544998c2.192993,-1.382996 1.984009,-1.908997 -0.786987,-1.985992c-2.075012,-0.057007 -4.968994,2.340988 -6.429016,5.329987c-3.705994,7.583008 -3.476013,8.667999 0.682007,3.201004zm14.765991,-11.30899c8.60498,1.015991 18.133972,-6.49501 15.979004,-12.594009c-2.973022,-8.417999 -25.637024,-1.227997 -24.158997,7.664001c0.422974,2.544006 3.455017,4.371994 8.179993,4.930008zm-2.265015,-10.358002c4.66803,-1.751007 9.069031,2.054993 6.725037,5.817993c-2.366028,3.796997 -10.815002,3.059998 -10.747009,-0.936996c0.031006,-1.865997 1.841003,-4.061996 4.021973,-4.880997zm15.749023,32.054001c1.885986,-0.708008 3.451965,-2.636017 3.479004,-4.285004c0.039978,-2.334 -0.590027,-2.361008 -2.833008,-0.128006c-1.587036,1.580002 -5.067017,2.961014 -7.733032,3.068008c-4.182983,0.169983 -4.264954,0.363983 -0.594971,1.414001c2.339966,0.669006 5.796997,0.639008 7.682007,-0.069zm15.380981,-8.542999c2.776001,-1.46701 4.664978,-3.922012 4.197998,-5.453003c-0.466003,-1.531006 1.923035,-5.175003 5.309998,-8.098007c4.778015,-4.121994 5.540039,-5.985001 3.395996,-8.309998c-2.143982,-2.326004 -1.098999,-4.115005 4.679016,-8.003006c10.536011,-7.090988 10.794983,-10.266998 0.752991,-9.23999c-6.974976,0.713989 -8.174011,1.645996 -7.059998,5.492996c0.856995,2.959 0,5.136002 -2.372986,6.026001c-2.512024,0.942993 -3.304016,3.216995 -2.444031,7.024002c0.968994,4.291992 0.070007,5.998993 -3.781982,7.182999c-3.727966,1.147003 -4.682983,2.832001 -3.640991,6.427002c1.073975,3.709991 0.099976,5.201004 -4.080994,6.248001c-3.020996,0.756989 -4.257019,1.825989 -2.747009,2.375c1.51001,0.547989 5.017029,-0.203003 7.791992,-1.671997zm-122.192993,168.367004c3.249023,0.057983 5.890015,1.084991 5.870972,2.280975c-0.047974,2.841003 -6.993958,5.415009 -9.727966,3.605011c-4.119995,-2.725983 -1.981995,-5.988983 3.856995,-5.885986zm14.257019,-13.423004c4.882996,-1.832001 11.473999,0.988983 9.544983,4.084991c-0.832031,1.334991 -3.513,2.391998 -5.958008,2.347992c-5.820984,-0.104004 -8.354004,-4.643982 -3.586975,-6.432983zm9.244995,91.802979c4.411011,0.078003 5.029968,0.739014 2.786987,2.973022c-2.244019,2.233002 -3.504028,2.212006 -5.671021,-0.10202c-2.167969,-2.310974 -1.526978,-2.949982 2.884033,-2.871002zm10.263977,-107.011993c7.402039,0.131012 6.496033,5.837006 -1.088013,6.848999c-3.415955,0.455994 -5.121948,-0.596985 -5.079956,-3.135986c0.041992,-2.485992 2.197998,-3.783997 6.167969,-3.713013zm3.419983,113.59201c1.141052,-0.699005 4.06604,0.338989 6.5,2.307007c4.279053,3.458984 4.254028,3.575989 -0.753967,3.561981c-5.526978,-0.014984 -9.190979,-3.756989 -5.746033,-5.868988zm10.747009,-132.830017c7.696045,0.137024 9.647034,4.153015 3.579041,7.362c-5.524048,2.922028 -9.492004,1.252014 -9.405029,-3.954987c0.035034,-2.096985 2.380005,-3.467987 5.825989,-3.407013zm9.856018,144.324036c2.416016,0.523987 4.109009,2.028992 3.760986,3.344971c-0.929993,3.523987 -5.984985,2.815979 -7.148987,-1.002991c-0.653992,-2.145996 0.526978,-2.961975 3.388,-2.34198zm14.047974,12.451965c5.90802,1.291016 6.627014,6.997009 0.868042,6.894043c-2.902039,-0.052002 -4.895996,-1.661011 -4.858032,-3.920044c0.038025,-2.266968 1.666016,-3.481995 3.98999,-2.973999zm13.932007,14.866028c5.90802,1.289978 6.627014,6.997009 0.868042,6.893982c-2.902039,-0.052002 -4.895996,-1.659973 -4.858032,-3.919983c0.038025,-2.268005 1.666016,-3.481995 3.98999,-2.973999zm10.85199,16.815979c4.388,0.078003 9.342041,6.619995 6.384033,8.432007c-3.429993,2.101013 -9.762024,-1.22699 -9.695984,-5.096985c0.029968,-1.866028 1.520996,-3.366028 3.311951,-3.335022z"/>
  <metadata id="svg_19">image/svg+xml</metadata>
  <path id="svg_40" clip-rule="evenodd" fill="#ff0080" fill-rule="evenodd" d="m178.906769,28.42728c1.23999,4.221981 3.480011,5.837978 2.905029,10.629971c-0.649017,5.417999 -1.363037,9.572018 -0.003021,15.085018c2.809021,11.388981 11.696991,16.224003 19.040009,21.805004c3.89801,2.96302 6.79599,7.202995 9.720001,11.50399c3.141998,4.622025 6.860992,8.863007 9.31601,14.132004c2.413971,5.181999 3.952972,11.033005 6.031982,16.434006c2.393005,6.216003 4.677002,12.328003 6.161011,18.998001c1.139984,5.128998 1.580994,10.403 1.531982,15.714981c1.251007,-5.830994 -2.044983,-14.341003 -3.15799,-19.898972c-1.718994,-8.582001 -3.437988,-17.163017 -5.157013,-25.74501c6.14502,11.880005 12.290009,23.759979 18.434998,35.639984c-2.507996,-8.281006 -7.478973,-14.578003 -11.120972,-22.00901c-3.88501,-7.92498 -6.465027,-16.894974 -9.919006,-25.135963c4.707977,7.442978 10.283997,13.519974 16.029999,19.632973c-0.036011,-1.50399 0.587006,-3.042999 0.100006,-4.377007c-0.521027,-1.42598 -2.083008,-2.200974 -2.705017,-3.751976c-2.098999,-5.236992 -3.618988,-9.138 -6.694,-13.798012c-6.501984,-9.851974 -13.214996,-18.485992 -17.5,-30.252991c-2.126007,-5.837009 -4.197998,-11.703003 -6.664001,-17.326992c-2.431976,-5.547001 -5.463989,-10.01001 -8.115997,-15.27903c-2.175995,-4.323969 -3.343018,-7.15798 -6.763,-10.00399c-2.390991,-1.989988 -8.007996,-1.158989 -10.069,1.25c-0.949982,1.111031 -1.126984,3.354012 -2.003998,4.25201c-1.268982,1.300991 -3.888,0.269991 -5.108978,1.876011c1.777985,0.760979 3.848969,0.531981 5.710968,0.625"/>
  <path id="svg_45" clip-rule="evenodd" fill="#ff0080" fill-rule="evenodd" d="m169.538055,41.228161c-1.141022,3.101021 -3.200012,4.287968 -2.671997,7.807991c0.597961,3.979977 1.253967,7.030029 0.00296,11.080009c-2.583984,8.365971 -10.757965,11.916996 -17.511993,16.017002c-3.584991,2.175995 -6.250977,5.290009 -8.939972,8.449005c-2.890015,3.394958 -6.311005,6.51001 -8.569,10.380981c-2.220032,3.804993 -3.63501,8.103027 -5.548019,12.070007c-2.200996,4.565979 -4.302017,9.055969 -5.665993,13.955009c-1.049988,3.766975 -1.454994,7.640999 -1.410004,11.542976c-1.150993,-4.28302 1.881012,-10.533997 2.905029,-14.615967c1.580994,-6.304016 3.161987,-12.607056 4.742981,-18.911003c-5.652008,8.726944 -11.304016,17.452995 -16.954987,26.178947c2.306,-6.082977 6.877991,-10.707977 10.227997,-16.165977c3.57299,-5.820992 5.945984,-12.410011 9.122978,-18.46299c-4.329979,5.46698 -9.458977,9.93 -14.742973,14.421013c0.03299,-1.105034 -0.541016,-2.236015 -0.093025,-3.215019c0.479012,-1.047974 1.917,-1.617004 2.488014,-2.755974c1.931,-3.846992 3.32901,-6.712044 6.157005,-10.13501c5.97998,-7.237007 12.154968,-13.578987 16.095978,-22.221016c1.954987,-4.288029 3.860992,-8.596989 6.128998,-12.727966c2.237,-4.074032 5.026001,-7.352051 7.465027,-11.223022c2.001984,-3.174988 3.074982,-5.257019 6.219971,-7.348019c2.200012,-1.460999 7.366028,-0.849979 9.261993,0.918999c0.873993,0.815983 1.037018,2.46302 1.843018,3.12299c1.166992,0.955021 3.576019,0.198002 4.699005,1.378052c-1.63501,0.55896 -3.540009,0.390991 -5.252991,0.458988"/>
 </g>
</svg>