<?xml version="1.0"?><svg width="640" height="480" xmlns="http://www.w3.org/2000/svg">
 <title>hibiscus pink yellow</title>
 <metadata id="metadata8159">image/svg+xml</metadata>
 <g>
  <title>Layer 1</title>
  <rect id="svg_5" height="4" width="0" y="236" x="189" opacity="0.25" stroke-linecap="null" stroke-linejoin="null" stroke-dasharray="null" stroke-width="null" fill="#ff007f"/>
  <g id="svg_1">
   <path d="m196.193909,178.118088c0.099823,-3.858795 -8.129929,-9.008652 -1.853851,-11.155014c1.389435,-3.121765 0.112183,-10.106949 5.903214,-7.477066c4.295502,2.002289 5.216293,-4.875916 9.66748,-1.96283c4.140488,1.256256 2.035522,5.328125 -1.092911,5.261887c-4.000732,4.042267 1.346329,9.910873 5.51709,11.829651c3.22226,2.603485 5.17215,-1.025391 2.872253,-3.70105c-1.921555,-5.220551 6.709595,-4.92569 5.107025,0.233582c-2.6978,3.322647 -3.231064,9.101669 1.885529,11.025787c3.31073,1.518921 3.822769,-2.016144 2.369431,-4.340637c-0.968903,-4.171844 6.160904,-5.721832 5.561981,-0.876312c-1.886673,3.467148 -5.856628,8.660461 -0.760788,12.03569c3.783951,2.085129 4.064468,-3.054306 3.680695,-5.478699c1.951431,-4.608688 8.774384,1.330017 3.872421,3.608337c-4.834396,2.51474 -2.871292,8.176743 0.812424,11.415207c5.738098,6.596375 10.021362,14.378922 13.368347,22.368652c3.128906,7.949738 5.071136,16.631378 3.956512,24.832367c-1.909561,4.899902 -10.320038,3.780487 -11.637558,-1.708984c-2.422119,-5.899628 -1.384644,-12.227081 -3.154633,-18.244537c-2.230774,-11.870712 -6.211731,-23.799957 -13.304291,-33.991333c-4.102036,-4.241425 -7.267822,5.309479 -11.232437,1.311172c-2.365112,-4.648819 4.534607,-5.713348 7.030243,-4.301895c2.016739,-3.786102 -5.1875,-8.479767 -8.224884,-5.927368c-2.106934,2.328995 -7.432617,4.878571 -7.436691,-0.745056c0.816025,-4.91127 6.649979,1.507889 7.991104,-2.206436c-0.46199,-4.206451 -6.149643,-5.448608 -9.461029,-6.501617c-5.326797,-1.206879 -4.288315,6.583023 -8.615952,7.101532c-1.292725,-0.149078 -2.282501,-1.229202 -2.820724,-2.405029z" id="path7490" fill="#ff007f"/>
   <path id="path7488" d="m174.608978,274.716187c1.777603,-7.140106 13.586472,-12.565887 4.746552,-20.21756c-3.434204,-9.80896 7.077545,-17.535065 16.072937,-16.404572c9.43721,0.139832 18.293839,5.034698 27.792633,4.352966c0.417374,-9.205078 -11.441757,-8.138336 -17.685135,-7.948975c-9.146652,-0.036041 -19.855118,0.702759 -27.162827,-5.93631c-7.52597,-8.1026 9.781509,-12.086823 3.232498,-18.429993c-6.42363,-6.486084 -0.260345,-15.213806 7.596802,-10.884918c8.434875,-3.837204 17.814621,-7.129379 26.138702,-0.137192c12.740219,7.472763 21.760529,21.200089 23.302917,35.879654c-8.533615,-3.192627 -10.160065,-15.096436 -19.171295,-18.205109c-9.422028,-3.103226 -11.163712,10.003113 -2.75618,12.884033c4.453384,5.252258 21.20784,10.17395 14.037369,17.834473c-6.969223,-0.389679 -23.026642,-2.798859 -17.735977,9.448578c6.336716,6.316193 -8.203461,14.25351 2.195724,17.201385c9.118683,0.554779 12.201309,-9.697266 19.325623,-13.439056c9.494781,-2.182526 -2.01886,6.315826 -4.30481,9.2854c-8.064453,9.719391 -11.623489,24.519806 -24.641556,29.174103c-8.74614,-0.029053 -15.406708,-7.591187 -24.137146,-8.369171c-5.638901,-2.81369 -9.967239,-10.01709 -6.846863,-16.08783l0.000031,0.000092zm84.509583,-48.08905c-5.185059,-15.769409 -5.644211,-35.55687 6.844666,-47.81543c6.569885,-7.562286 15.442017,3.724045 20.843506,-3.998352c9.030701,-4.884064 21.051361,4.699799 17.50766,14.642563c-3.126282,8.385345 10.821838,10.498184 5.19809,19.388504c-3.463562,9.299133 -13.558624,10.970154 -21.744934,13.83252c-7.278656,3.181824 -13.58374,8.223663 -19.028748,13.942017c-4.265167,-4.006409 6.77002,-11.202148 8.494629,-16.08078c4.057281,-5.285233 11.239716,-13.386673 4.829376,-19.762787c-7.970245,-2.546661 -11.593628,8.240402 -15.796783,13.186798c-2.288727,3.509277 -2.659424,19.91568 -7.147339,12.664948l0,0l-0.000122,0zm35.026825,49.130249c-9.110809,-7.391815 -20.265106,-11.67038 -31.495667,-14.424255c0.523315,8.534485 15.016052,7.859619 13.60675,16.905518c-3.06311,3.38504 -9.72052,1.852661 -5.539001,8.425751c7.397644,7.442566 -4.171936,18.251526 -10.17337,9.276978c-3.859528,-4.342651 -1.206787,-17.306732 -8.027924,-9.046967c-8.479752,7.332184 -13.650696,-8.752808 -7.288651,-13.945496c3.240814,-3.50528 5.922852,-12.001434 -1.860733,-8.478607c-6.897858,4.149353 -11.780365,11.286652 -15.421112,18.38382c-3.567551,8.117706 -6.098984,18.189606 -1.96582,26.643829c5.225922,8.672516 16.973663,10.480835 25.661057,6.90097c8.471146,0.391998 12.259445,11.111084 21.205307,11.162933c9.859039,1.894104 21.981659,-4.440216 22.446899,-15.283051c3.222687,-8.236359 13.131958,-15.981934 6.838928,-25.621552c-1.841888,-4.151337 -4.727234,-7.767944 -7.986603,-10.89978l-0.000061,-0.000092zm44.023041,-25.598053c-4.150024,-6.481964 -19.14444,-0.895874 -13.682098,-11.152008c0.653534,-9.463531 -10.401093,-12.435852 -17.789276,-13.177887c-15.917419,-0.924072 -30.189148,8.592529 -40.686707,19.551514c-1.528473,5.583862 6.085419,-3.90506 8.864777,-3.539276c5.536865,-1.798462 16.282013,-5.895203 19.817261,0.144196c-3.519379,3.734253 -4.758606,9.776611 2.718628,8.213654c9.30011,1.03244 7.796326,15.931915 -2.136108,10.497864c-9.334503,-2.720886 -20.00885,-8.380035 -29.43335,-4.422791c3.619293,5.08075 14.522919,4.775452 19.962463,9.980133c8.495941,4.7966 15.073486,12.273315 23.145508,17.584808c8.731293,5.447723 20.714447,0.565155 20.610931,-9.76123c7.977112,-3.863556 17.917084,-11.537781 10.660522,-21.421844l-0.961792,-1.308319l-1.090698,-1.18869l0,0l-0.000061,-0.000122z" fill="#ff007f"/>
  </g>
 </g>
</svg>